<svg xmlns="http://www.w3.org/2000/svg" xmlns:xlink="http://www.w3.org/1999/xlink" id="body_1" width="171" height="60"><g transform="matrix(1.2096775 0 0 1.2096775 0.15725474 -0)"><g><g><path d="M53.1 5.4L40.5 5.4C 40.083733 3.7692575 39.041862 2.3681183 37.6 1.5C 35.8 0.5 32.9 0 29 0C 25.099998 0 22.1 0.5 20.3 1.5C 18.858135 2.3681188 17.816261 3.769258 17.4 5.4L17.4 5.4L3.9 5.4C 0 5.4 0 6.3 0 9.4L0 9.4L0 39.7C 0 42.8 0 43.600002 3.9 43.600002L3.9 43.600002L22.9 43.600002L27.8 49C 28.051708 49.362076 28.459301 49.5844 28.9 49.6L28.9 49.6L29 49.6C 29.465342 49.57297 29.899174 49.356056 30.2 49L30.2 49L35 43.6L53.1 43.6C 57.1 43.6 58.1 40.6 58.1 37.5L58.1 37.5L58.1 11.5C 58.1 8.4 57.1 5.4 53.1 5.4zM6.5 41.8L6.5 24.6L14.4 24.6C 15.2 24.600002 15.599999 24.300003 15.599999 23.7C 15.599999 23.100002 15.2 22.800001 14.4 22.800001L14.4 22.800001L6.5 22.800001L6.5 7.2L17.1 7.2C 17.1 7.6 17 7.8999996 17 8.3L17 8.3L17 41.5C 16.990711 41.60949 17.026875 41.71798 17.1 41.8zM28.9 48L23.5 41.9L25.8 11.300001C 25.8 9.400002 24.599998 7.000001 24.099998 5.300001C 23.905155 4.699113 23.978006 4.043463 24.3 3.5000012L24.3 3.5000012L24.4 3.5000012C 25.133333 2.5000005 26.633333 2 28.9 2L28.9 2L29 2C 31.4 2 32.9 2.5 33.6 3.5C 33.864223 4.0612774 33.93457 4.6944113 33.8 5.3C 33.3 7 32 9.4 32.1 11.3L32.1 11.3L34.3 41.9zM51.6 37C 51.72245 38.307026 51.480145 39.622402 50.899998 40.8C 50.256607 41.365395 49.452297 41.71509 48.6 41.8L48.6 41.8L46.3 42L44 41.8C 43.142254 41.73656 42.3314 41.384014 41.7 40.8C 41.345795 40.3764 41.135647 39.85103 41.100002 39.3C 40.918198 38.412247 40.850983 37.50485 40.9 36.6L40.9 36.6L40.9 12.7C 40.850983 11.795152 40.918198 10.887752 41.100002 10C 41.135647 9.448973 41.345795 8.923602 41.7 8.5C 42.3 7.8 43.4 7.4 45.100002 7.2L45.100002 7.2L47.500004 7.2C 49.200005 7.3999996 50.300003 7.7999997 50.900005 8.5C 51.25088 8.963892 51.459335 9.519779 51.500004 10.1C 51.590645 10.829599 51.62408 11.565187 51.600002 12.3z" stroke="none" fill="#FFFFFF" fill-rule="nonzero"></path><path d="M74.1 15L74.1 16.3L69.4 16.3L69.4 6.9L74 6.9L74 8.1L70.7 8.1L70.7 10.900001L73.7 10.900001L73.7 12.1L70.7 12.1L70.7 15L74.1 15z" stroke="none" fill="#FFFFFF" fill-rule="nonzero"></path><path d="M80.2 11.8L80.2 16.3L78.9 16.3L78.9 11.9C 78.9 10.7 78.6 10.2 77.9 10.2C 77.200005 10.2 76.700005 10.8 76.700005 11.9L76.700005 11.9L76.700005 16.3L75.4 16.3L75.4 9.2L76.3 9.2L76.3 10C 76.6842 9.375193 77.36654 8.996112 78.100006 9C 79.4 9 80.2 9.9 80.2 11.8z" stroke="none" fill="#FFFFFF" fill-rule="nonzero"></path><path d="M84.8 15.1L84.8 16.300001L84.3 16.300001C 83.68943 16.331976 83.09524 16.096272 82.67262 15.654444C 82.25001 15.212617 82.040924 14.608545 82.1 14L82.1 14L82.1 10.4L81.1 10.4L81.1 9.2L82.1 9.2L82.1 7.5L83.299995 7.5L83.299995 9.2L84.7 9.2L84.7 10.4L83.3 10.4L83.3 14C 83.26811 14.300388 83.37371 14.599096 83.58731 14.812696C 83.80091 15.026298 84.09962 15.131897 84.4 15.1L84.4 15.1L84.8 15.1z" stroke="none" fill="#FFFFFF" fill-rule="nonzero"></path><path d="M89.5 9.1L89.5 10.400001L88.7 10.400001C 88.27425 10.364894 87.85577 10.526094 87.56359 10.837748C 87.271416 11.149402 87.13753 11.5774 87.2 12.000001L87.2 12.000001L87.2 16.400002L85.9 16.400002L85.9 9.2L86.8 9.2L87 10C 87.38419 9.375193 88.066536 8.996112 88.8 9L88.8 9L89.5 9.1z" stroke="none" fill="#FFFFFF" fill-rule="nonzero"></path><path d="M95.2 14C 95.23146 14.663467 94.974556 15.308141 94.49541 15.768129C 94.01625 16.228117 93.36163 16.458502 92.7 16.4C 91.2 16.4 90.299995 15.4 90.299995 13.7L90.299995 13.7L90.299995 11.6C 90.20987 10.922129 90.426056 10.239305 90.889885 9.736818C 91.35372 9.234333 92.0171 8.964302 92.7 9C 93.38992 8.968762 94.05986 9.236252 94.53854 9.734083C 95.017235 10.2319145 95.258255 10.911829 95.2 11.6L95.2 11.6L95.2 13.200001L91.6 13.200001L91.6 13.700001C 91.6 14.700001 92 15.200001 92.7 15.200001C 93.399994 15.200001 93.799995 14.800001 93.899994 14.000001L93.899994 14.000001L95.2 14zM91.6 11.6L91.6 12.200001L93.9 12.200001L93.9 11.6C 93.9 10.700001 93.4 10.200001 92.700005 10.200001C 92.00001 10.200001 91.6 10.7 91.6 11.6z" stroke="none" fill="#FFFFFF" fill-rule="nonzero"></path><path d="M101.4 11.8L101.4 13.7C 101.4 15.4 100.5 16.4 99.200005 16.4C 98.686424 16.419403 98.18509 16.240355 97.8 15.9L97.8 15.9L97.8 18.699999L96.5 18.699999L96.5 9.2L97.5 9.2L97.5 9.8C 97.90913 9.280576 98.538994 8.984169 99.2 9C 100.5 9 101.4 10 101.4 11.8zM100.1 11.8C 100.1 10.7 99.7 10.2 98.9 10.2C 98.100006 10.2 97.8 10.7 97.8 11.7L97.8 11.7L97.8 13.7C 97.8 14.599999 98.200005 15.2 98.9 15.2C 99.6 15.2 100.1 14.7 100.1 13.7z" stroke="none" fill="#FFFFFF" fill-rule="nonzero"></path><path d="M106.4 9.1L106.4 10.400001L105.5 10.400001C 104.7 10.400001 104.1 10.900001 104.1 12.000001L104.1 12.000001L104.1 16.400002L102.799995 16.400002L102.799995 9.2L103.7 9.2L103.899994 10C 104.25169 9.342252 104.95572 8.951128 105.7 9L105.7 9L106.4 9.1z" stroke="none" fill="#FFFFFF" fill-rule="nonzero"></path><path d="M112.1 14C 112.10235 14.672736 111.82223 15.31557 111.327896 15.771876C 110.83356 16.228184 110.17041 16.456064 109.5 16.4C 108.80793 16.40543 108.147194 16.111828 107.687386 15.594546C 107.227585 15.077265 107.01347 14.386667 107.1 13.7L107.1 13.7L107.1 11.6C 107.04174 10.911829 107.28276 10.2319145 107.761444 9.734083C 108.24013 9.236252 108.91007 8.968762 109.6 9C 110.282906 8.964302 110.94628 9.234333 111.41012 9.736819C 111.87395 10.239305 112.09013 10.922129 112 11.6L112 11.6L112 13.200001L108.4 13.200001L108.4 13.700001C 108.4 14.700001 108.9 15.200001 109.6 15.200001C 110.299995 15.200001 110.7 14.800001 110.799995 14.000001L110.799995 14.000001L112.1 14zM108.4 11.6L108.4 12.200001L110.700005 12.200001L110.700005 11.6C 110.700005 10.700001 110.3 10.200001 109.600006 10.200001C 108.90001 10.200001 108.4 10.7 108.4 11.6z" stroke="none" fill="#FFFFFF" fill-rule="nonzero"></path><path d="M118.2 11.8L118.2 16.3L116.899994 16.3L116.899994 11.9C 116.899994 10.7 116.59999 10.2 115.899994 10.2C 115.2 10.2 114.7 10.8 114.7 11.9L114.7 11.9L114.7 16.3L113.399994 16.3L113.399994 9.2L114.299995 9.2L114.49999 10C 114.81736 9.358248 115.48488 8.96559 116.19999 9C 117.4 9 118.2 9.9 118.2 11.8z" stroke="none" fill="#FFFFFF" fill-rule="nonzero"></path><path d="M124.5 14C 124.50234 14.672736 124.22222 15.31557 123.72789 15.771876C 123.23355 16.228184 122.570404 16.456064 121.9 16.4C 121.207924 16.40543 120.54719 16.111828 120.08738 15.594546C 119.62758 15.077265 119.41347 14.386667 119.5 13.7L119.5 13.7L119.5 11.6C 119.44174 10.911829 119.68276 10.2319145 120.161446 9.734083C 120.64014 9.236252 121.310074 8.968762 122 9C 122.6829 8.964302 123.346275 9.234333 123.81011 9.736819C 124.27394 10.239305 124.49013 10.922129 124.4 11.6L124.4 11.6L124.4 13.200001L120.8 13.200001L120.8 13.700001C 120.8 14.700001 121.3 15.200001 122 15.200001C 122.7 15.200001 123.1 14.800001 123.2 14.000001L123.2 14.000001L124.5 14zM120.8 11.6L120.8 12.200001L123.100006 12.200001L123.100006 11.6C 123.100006 10.700001 122.700005 10.200001 122.00001 10.200001C 121.30001 10.200001 120.8 10.7 120.8 11.6z" stroke="none" fill="#FFFFFF" fill-rule="nonzero"></path><path d="M130.5 9.2L130.5 16.3L129.6 16.3L129.6 15.499999C 129.20564 16.102005 128.51823 16.445705 127.8 16.4C 126.600006 16.4 125.8 15.599999 125.8 13.599999L125.8 13.599999L125.8 9.2L127 9.2L127 13.6C 127 14.700001 127.3 15.200001 128 15.200001C 128.7 15.200001 129.2 14.6 129.2 13.6L129.2 13.6L129.2 9.2L130.5 9.2z" stroke="none" fill="#FFFFFF" fill-rule="nonzero"></path><path d="M135.7 9.1L135.7 10.400001L134.8 10.400001C 134 10.400001 133.40001 10.900001 133.40001 12.000001L133.40001 12.000001L133.40001 16.400002L132.1 16.400002L132.1 9.2L133 9.2L133.2 10C 133.55171 9.342252 134.25574 8.951128 135 9L135 9L135.7 9.1z" stroke="none" fill="#FFFFFF" fill-rule="nonzero"></path><path d="M136.2 14.1L137.5 14.1C 137.49872 14.40992 137.62823 14.706002 137.85669 14.915424C 138.08516 15.124847 138.39136 15.228177 138.7 15.200001C 139.4 15.200001 139.8 14.900001 139.8 14.300001C 139.8 13.700002 136.3 13.400002 136.3 11.000001C 136.29337 10.413249 136.54472 9.85318 136.98752 9.468142C 137.43031 9.083102 138.01987 8.911944 138.6 9.000001C 139.23509 8.941233 139.86443 9.160972 140.32492 9.60227C 140.7854 10.04357 141.03171 10.662989 141 11.300001L141 11.300001L139.7 11.300001C 139.73189 10.999612 139.62628 10.700902 139.41269 10.487301C 139.19908 10.2737 138.90038 10.168102 138.59999 10.200001C 137.99998 10.200001 137.59999 10.500001 137.59999 11.000001C 137.59999 11.500001 141.09999 11.800001 141.09999 14.400002C 141.09999 17.000002 140.2 16.400002 138.7 16.400002C 138.05615 16.456205 137.41838 16.238932 136.94275 15.801356C 136.46713 15.363781 136.19756 14.746285 136.2 14.1z" stroke="none" fill="#FFFFFF" fill-rule="nonzero"></path><path d="M78.4 26.6L78.4 41L76.3 41L73.100006 33.9C 72.700005 32.800003 72.100006 31.300001 71.700005 30.400002C 71.8 31.800001 71.9 34 71.9 35.300003L71.9 35.300003L71.9 41L69.9 41L69.9 26.6L72 26.6L75.3 33.9L76.600006 37.100002L76.700005 37.100002C 76.50358 35.507496 76.4034 33.904583 76.4 32.300003L76.4 32.300003L76.4 26.6L78.4 26.6z" stroke="none" fill="#FFFFFF" fill-rule="nonzero"></path><path d="M80.8 27.1C 80.7691 26.746645 80.896095 26.39772 81.14691 26.146906C 81.39773 25.896093 81.74665 25.76909 82.100006 25.800001C 82.43638 25.798832 82.75779 25.938892 82.98595 26.186058C 83.214096 26.433226 83.32804 26.764801 83.3 27.1C 83.3 27.762741 82.76275 28.3 82.100006 28.300001C 81.7648 28.328035 81.43323 28.214094 81.18606 27.98594C 80.93889 27.757786 80.79883 27.436369 80.8 27.1zM81.100006 30.1L83.100006 30.1L83.100006 41L81.100006 41z" stroke="none" fill="#FFFFFF" fill-rule="nonzero"></path><path d="M92.7 30.1L92.7 41.5C 92.72761 43.488224 91.13822 45.122383 89.149994 45.149998C 87.16177 45.177612 85.52761 43.588223 85.5 41.6L85.5 41.6L87.4 41.6C 87.42571 42.02465 87.61948 42.421577 87.938484 42.703053C 88.257484 42.984524 88.67545 43.127365 89.1 43.1C 89.53284 43.12996 89.95744 42.971035 90.26424 42.66424C 90.57103 42.357445 90.72996 41.93284 90.7 41.5L90.7 41.5L90.7 39.9C 90.13217 40.35369 89.42682 40.600567 88.7 40.600002C 86.6 40.600002 85.2 39.000004 85.2 36.600002L85.2 36.600002L85.2 34C 85.2 31.4 86.6 29.9 88.7 29.9C 89.62701 29.876032 90.513 30.282112 91.1 31L91.1 31L91.299995 30.1L92.7 30.1zM90.7 36.6L90.7 33.9C 90.7 32.5 90 31.800001 89 31.800001C 88 31.800001 87.2 32.5 87.2 34L87.2 34L87.2 36.6C 87.2 38 87.899994 38.699997 89 38.699997C 90.100006 38.699997 90.7 38 90.7 36.6z" stroke="none" fill="#FFFFFF" fill-rule="nonzero"></path><path d="M102.5 34.4L102.5 41L100.5 41L100.5 34.4C 100.5 32.5 100 31.800001 99 31.800001C 98 31.800001 97.1 32.7 97.1 34.300003L97.1 34.300003L97.1 41L95.1 41L95.1 26.1L97.1 26.1L97.1 31.2C 97.63333 30.393744 98.53334 29.90624 99.5 29.900002C 101.4 29.9 102.5 31.3 102.5 34.4z" stroke="none" fill="#FFFFFF" fill-rule="nonzero"></path><path d="M109.6 39.2L109.6 41.100002L108.799995 41.100002C 107.85298 41.132694 106.93762 40.75672 106.287 40.067825C 105.636375 39.378933 105.31328 38.443596 105.399994 37.500004L105.399994 37.500004L105.399994 31.9L103.899994 31.9L103.899994 30.1L105.399994 30.1L105.399994 27.6L107.399994 27.6L107.399994 30.1L109.399994 30.1L109.399994 31.9L107.399994 31.9L107.399994 37.5C 107.399994 38.7 107.899994 39.2 108.899994 39.2L108.899994 39.2L109.6 39.2z" stroke="none" fill="#FFFFFF" fill-rule="nonzero"></path><path d="M115.6 36.4L115.6 31.1C 115.6 28.1 117.2 26.3 120 26.3C 122.8 26.3 124.4 28.099998 124.4 31.099998L124.4 31.099998L124.4 36.399998C 124.4 39.399998 122.700005 41.3 120 41.3C 117.299995 41.3 115.6 39.4 115.6 36.4zM122.2 36.4L122.2 31.1C 122.2 29.300001 121.5 28.300001 120 28.300001C 118.5 28.300001 117.7 29.300001 117.7 31.1L117.7 31.1L117.7 36.4C 117.7 38.2 118.5 39.2 120 39.2C 121.5 39.2 122.2 38.2 122.2 36.4z" stroke="none" fill="#FFFFFF" fill-rule="nonzero"></path><path d="M133.9 30.1L133.9 41L132.5 41L132.3 39.8C 131.71686 40.73 130.69772 41.29619 129.6 41.3C 127.700005 41.3 126.50001 39.899998 126.50001 36.899998L126.50001 36.899998L126.50001 30.1L128.5 30.1L128.5 36.8C 128.5 38.6 129 39.399998 130 39.399998C 131 39.399998 131.9 38.399998 131.9 36.8L131.9 36.8L131.9 30.1L133.9 30.1z" stroke="none" fill="#FFFFFF" fill-rule="nonzero"></path><path d="M141.1 39.2L141.1 41.100002L140.3 41.100002C 139.353 41.13269 138.43764 40.756718 137.78702 40.067825C 137.1364 39.37893 136.8133 38.443596 136.90001 37.500004L136.90001 37.500004L136.90001 31.9L135.40001 31.9L135.40001 30.1L136.90001 30.1L136.90001 27.6L138.90001 27.6L138.90001 30.1L140.90001 30.1L140.90001 31.9L138.90001 31.9L138.90001 37.5C 138.90001 38.7 139.3 39.2 140.40001 39.2L140.40001 39.2L141.1 39.2z" stroke="none" fill="#FFFFFF" fill-rule="nonzero"></path></g></g></g></svg>