<svg width="174" height="54" viewBox="0 0 174 54" fill="none" xmlns="http://www.w3.org/2000/svg"><path fill-rule="evenodd" clip-rule="evenodd" d="M24.453 18.637h-1.92V41.71c0 6.367 5.175 11.546 11.54 11.546h138.97l.003-23.076c0-6.365-5.18-11.544-11.54-11.544H24.453z" fill="#FEFEFE"/><path fill-rule="evenodd" clip-rule="evenodd" d="M171.122 51.334H34.073c-5.312 0-9.62-4.309-9.62-9.622V20.559h137.052c5.313 0 9.62 4.31 9.62 9.622l-.003 21.153z" fill="#173070"/><path fill-rule="evenodd" clip-rule="evenodd" d="M77.984 41.68c1.085.493 2.195.96 3.326.96.714 0 1.732-.339 1.732-1.193 0-1.97-4.69-3.394-4.69-6.688 0-.855.372-3.24 4.295-3.24 1.134 0 2.288.178 3.418.412l.251 2.645c-.78-.36-2.096-.672-2.975-.672-.554 0-1.502.182-1.502 1.06 0 1.661 4.689 3.344 4.689 6.795 0 2.433-2.52 3.264-4.458 3.264-1.242 0-2.514-.237-3.718-.544l-.368-2.799zm56.583-7.592c1.142-1.17 2.632-1.84 4.201-1.84 2.398 0 4.477 1.59 4.477 4.724v8.014h-3.313v-7.54c0-1.743-1.039-2.886-2.61-2.886-1.141 0-2.755.794-2.755 3.059v7.367h-3.314v-12.44h3.314v1.542zm12.574-7.592h3.311v10.747h.192l4.344-5.148h3.066l-4.731 5.627 5.691 7.061-3.819.002-4.691-6.568h-.052v6.566h-3.311V26.496zm-40.107 7.387c1.767 0 3.01 1.589 3.01 4.677 0 3.09-1.243 4.675-3.01 4.675-1.763 0-3.007-1.586-3.007-4.675 0-3.088 1.244-4.677 3.007-4.677zm.929-1.843c-1.541 0-2.927.78-3.888 2.019h-.053v-7.563h-3.309v18.287h3.311v-1.547c1.029 1.147 2.414 1.849 3.939 1.849 3.067 0 5.555-2.922 5.555-6.522s-2.488-6.523-5.555-6.523zm14.028 6.344c-1.617.498-2.437 1.444-2.437 2.86 0 1.098.638 1.845 1.436 1.84 1.412 0 2.894-1.421 2.839-5.3l-1.838.6zm-1.647 6.9c-2.706.004-4.021-1.687-4.032-3.462-.02-2.82 1.718-4.025 4.602-4.848l2.886-.856c-.174-1.144-1.142-1.881-2.212-1.881-1.422 0-2.413.523-3.286 1.27l-1.068-1.567c1.545-1.27 3.06-1.692 4.778-1.692 2.287 0 5.093.745 5.093 4.627v5.077c0 1.263.129 2.139.528 3.034h-3.529a5.819 5.819 0 01-.304-1.817s-1.371 2.113-3.456 2.115zM69.329 33.905c1.762 0 3.01 1.585 3.01 4.675 0 3.088-1.248 4.676-3.01 4.676-1.763 0-3.01-1.588-3.01-4.676 0-3.09 1.247-4.675 3.01-4.675zm-.003 11.2a6.52 6.52 0 100-13.04 6.523 6.523 0 00-6.521 6.52c0 3.6 2.924 6.52 6.521 6.52z" fill="#FEFEFE"/><path fill-rule="evenodd" clip-rule="evenodd" d="M91.147 41.237v-6.835h-1.64v-2.366h1.64v-1.951l3.37-1.465v3.416h1.941v2.366h-1.941v7.021c0 .282 0 .584.326.704.325.093 1.286.093 1.615.093v2.527l-1.427.07c-2.857 0-3.794-.585-3.884-3.58z" fill="#083C8F"/><path fill-rule="evenodd" clip-rule="evenodd" d="M91.147 41.237v-6.835h-1.64v-2.366h1.64v-1.951l3.37-1.465v3.416h1.941v2.366h-1.941v7.021c0 .282 0 .584.326.704.325.093 1.286.093 1.615.093v2.527l-1.427.07c-2.857 0-3.794-.585-3.884-3.58zM52.215 28.746V35h2.878s1.907.015 2.615-1.477c0 0 .945-1.708 0-3.487 0 0-.572-1.289-2.654-1.289h-2.84zm3.521-2.272c3.65-.187 4.848 1.781 4.848 1.781 2.15 3.284.264 6.176.264 6.176-1.766 3.095-5.15 2.88-5.15 2.88h-3.483v7.273H48.73v-18.15l7.006.04zM20.647 41.301c11.406 0 20.645-9.246 20.645-20.65C41.292 9.247 32.052 0 20.647 0 9.246 0 0 9.246 0 20.652c0 11.403 9.246 20.65 20.647 20.65z" fill="#FEFEFE"/><mask id="mask0_58_4586" style="mask-type:luminance" maskUnits="userSpaceOnUse" x="1" y="1" width="39" height="39"><path fill-rule="evenodd" clip-rule="evenodd" d="M1.679 20.394c0 10.492 8.513 19.004 19.012 19.004 10.506 0 19.016-8.512 19.016-19.004 0-10.498-8.51-18.997-19.016-18.997-10.499 0-19.012 8.499-19.012 18.997z" fill="#fff"/></mask><g mask="url(#mask0_58_4586)"><path fill-rule="evenodd" clip-rule="evenodd" d="M1.679 20.394c0 10.492 8.513 19.004 19.012 19.004 10.506 0 19.016-8.512 19.016-19.004 0-10.498-8.51-18.997-19.016-18.997-10.499 0-19.012 8.499-19.012 18.997z" fill="url(#paint0_radial_58_4586)"/></g><path fill-rule="evenodd" clip-rule="evenodd" d="M28.153 20.51c2.084-1.016 3.968-2.691 3.968-6.413 0 0 .204-6.108-7.224-6.757l-13.888-.005-.02 24.591 1.827 1.914 10.046.012c2.874.043 10.379.599 10.687-6.422.21-4.891-3.923-6.716-5.396-6.92z" fill="#1D336A"/><path fill-rule="evenodd" clip-rule="evenodd" d="M23.244 7.696H11.372V31.71l6.28.044 2.956-12.476h2.49s6.54.534 6.785-5.573c0 0 .404-6.327-6.639-6.01z" fill="#FEFEFE"/><path fill-rule="evenodd" clip-rule="evenodd" d="M31.002 26.816c.891-6.733-7.4-5.986-8.038-6.003l-2.604 10.91h4.13s5.798.49 6.512-4.907z" fill="#FEFEFE"/><defs><radialGradient id="paint0_radial_58_4586" cx="0" cy="0" r="1" gradientTransform="matrix(15.5742 -10.9052 10.913 15.563 12.247 8.335)" gradientUnits="userSpaceOnUse"><stop stop-color="#FEFEFE"/><stop offset="1" stop-color="#D91B0B"/></radialGradient></defs></svg>