<?xml version="1.0" encoding="utf-8"?>
<!-- Generator: Adobe Illustrator 23.0.3, SVG Export Plug-In . SVG Version: 6.00 Build 0)  -->
<svg version="1.1" id="Isolation_Mode" xmlns="http://www.w3.org/2000/svg" xmlns:xlink="http://www.w3.org/1999/xlink" x="0px"
	 y="0px" viewBox="0 0 116.2 174.8" style="enable-background:new 0 0 116.2 174.8;" xml:space="preserve">
<style type="text/css">
	.st0{fill-rule:evenodd;clip-rule:evenodd;fill:#EFD297;}
	.st1{fill-rule:evenodd;clip-rule:evenodd;fill:url(#SVGID_1_);}
</style>
<g>
	<path class="st0" d="M0.9,99.7V11.9h7.4V0h27.9v11.9h8.4V0c3,0,27.8,0,27.8,0v11.9h8.3V0h28v11.8h7.4v87.8
		c0.2,35.3-22.8,67.4-58,76.1C23.1,165.9,0.9,134.8,0.9,99.7L0.9,99.7L0.9,99.7z"/>
	
		<linearGradient id="SVGID_1_" gradientUnits="userSpaceOnUse" x1="58.465" y1="171.9" x2="58.465" y2="2.18" gradientTransform="matrix(1 0 0 -1 0 175)">
		<stop  offset="0" style="stop-color:#4F2D81"/>
		<stop  offset="1" style="stop-color:#341D54"/>
	</linearGradient>
	<path class="st1" d="M78.2,30.1V24h2.5v3.9h12.2v2.2H78.2L78.2,30.1L78.2,30.1z M41.9,30.1V24h2.7v4h12.2v2.2H41.9L41.9,30.1
		L41.9,30.1z M11.4,24.8V3.1h21.7v21.7H11.4L11.4,24.8L11.4,24.8z M13.4,22.9V5.1h17.7v17.7H13.4L13.4,22.9L13.4,22.9z M16,20.2V7.8
		h12.4v12.3H16L16,20.2L16,20.2z M52.4,20.2V7.8h12.3v12.4H52.4L52.4,20.2L52.4,20.2z M88.5,20.2V7.8h12.4v12.4H88.5L88.5,20.2
		L88.5,20.2z M36.2,20.5v-5.2h8.4v5.2H36.2L36.2,20.5L36.2,20.5z M72.5,20.5v-5.2h8.3v5.2H72.5L72.5,20.5L72.5,20.5z M49.7,22.9V5.1
		h17.7v17.8H49.7L49.7,22.9L49.7,22.9z M85.8,22.9V5.1h17.8v17.7H85.8L85.8,22.9L85.8,22.9z M74.7,30.1V24h-2.2v3.9H60.4v2.2
		L74.7,30.1L74.7,30.1L74.7,30.1z M38.4,30.1V24h-2.3v4H24v2.2L38.4,30.1L38.4,30.1L38.4,30.1z M83.8,24.8V3.1h21.7v21.8H83.8
		L83.8,24.8L83.8,24.8z M47.7,24.9V3.1h21.7v21.8H47.7L47.7,24.9L47.7,24.9z M39.3,44.6c0-0.5,0-0.5,0.3-0.6
		c0.8-0.2,1.5-0.2,2.3,0.1c0.2,0.3,0.5,0.5,0,0.9c-0.5,0.3-1,0.6-1.8,0.8C39.5,45.5,39.5,45.5,39.3,44.6L39.3,44.6L39.3,44.6z
		 M38,48.8l-0.2-0.3c-0.3,0-0.4-0.3-0.6-0.6c0-0.2,0-0.6,0-0.9c0-0.4,0.6,0,1.1,0.2l0.3,0.4l3.1,0.2h0.7c0.2,0,0.2,0.3,0,0.5
		c-0.5,0.6-1.5,1.1-2.3,1.1C39.6,49.2,38.6,48.9,38,48.8L38,48.8L38,48.8z M32.8,48.6l0.4-0.2h1.1c0.5,0.2,1,0.3,0.5,1l-1.6,0.2
		C32.8,49.4,32.8,48.8,32.8,48.6L32.8,48.6L32.8,48.6z M71.4,52.9c-0.2,0-0.3-0.1-0.3-0.4c0.2-0.7,0.2-1.1,0.3-1.8l0,0
		c0.4-0.8,1.8,0.2,2.4,0.2c0.2,0,0.3,0.2,0,0.7c-1.8,1.1-0.9,0.3-1.2,1.8l0,0C72,53.7,71.8,53.1,71.4,52.9L71.4,52.9L71.4,52.9z
		 M57.5,55.8L57.5,55.8c0.2-1.3,6.8-3.1,8.4-3.9c4.1-1.1-0.5,2.3-2,2.5c-1.6,0.8-4.2,2.5-5.9,3C57.5,57.2,57.4,56.9,57.5,55.8
		L57.5,55.8L57.5,55.8z M76,59.3c-0.2-0.1-0.3-0.5-0.4-0.9c0.3-1.6,1.2-2.7,1.5-4.6c-0.3-0.8-1-1.1-1.5-2c0.3-0.3,0.4-0.3,0.8-0.3
		c1.2,0.8,1.8,1.1,2.7,1.5c0.5,0.1,0.8,0.8,0.8,1.1c-0.2,1.6-0.3,3.5-0.3,5.1c-0.5,1-1.2,1-1.7,0.8C77,59.8,76.7,59.6,76,59.3
		L76,59.3L76,59.3z M68.3,61.1c0,0-0.2,0-0.3-0.4c-0.2-1.1-0.5-1.1,1-1.6c0.8,0,1.1,0,1.5,0.3c0,0.9-0.4,1.2-1.2,1.7
		C68.9,61.1,68.8,61.3,68.3,61.1L68.3,61.1L68.3,61.1z M51.1,60.8c-0.4-0.4-0.5-1.2-0.6-1.6c0.3-1.8,1.1-3,3.1-2.8
		c1.8,1.3,1.2,2.1,0.7,4.3C53.6,61.6,53.3,61.8,51.1,60.8L51.1,60.8L51.1,60.8z M39.6,61.3l-0.8-0.9c-0.5-0.4-0.7-0.8-0.5-1.6
		l0.3-1.7c0-0.5,0.3-0.7,1.2,0.2c0.2,0.3,0.6,0.6,0.8,1.1c0.5,1.2,0.3,3-0.2,3C40.1,61.5,39.9,61.5,39.6,61.3L39.6,61.3L39.6,61.3z
		 M47.3,61.5c-0.5-1.7-0.6-3,0.1-4.6c1.2-0.5,0,1.6,0,1.8c0,0.7,0.2,1.2,0.4,1.8c0,0.4,0.1,0.9,0.1,1.3c0.2,0.5,0.4,0.6,0.5,0.9
		c0.7,0.7,0,0.8-0.5,0.2C47.8,62.3,47.5,61.9,47.3,61.5L47.3,61.5L47.3,61.5z M43.5,59.6l0.2-0.8c0.3,0,0.3,0.3,0.3,0.3v1l0.3,3
		l-0.3,0.3h-0.3C42.7,62.4,43,61.6,43.5,59.6L43.5,59.6L43.5,59.6z M36.6,66l-0.3-0.3v-0.3l0.7-0.8c0.8-0.1,1.1-0.6,0.7,0.4
		l-0.5,0.7L36.6,66L36.6,66L36.6,66L36.6,66z M81.6,65.2c0.1,0,0.3,0,0.5,0c0.2,0,0.2,0.2,0.2,0.4c0,0.3,0,0.4-0.2,0.4
		C81.6,66,81.1,65.7,81.6,65.2L81.6,65.2L81.6,65.2z M47.8,66.7c0.1-0.2,0-0.2,0.6-0.2c0.2,0,0.5,0,0.8,0c0.2,0.2,0.2,0.5-0.3,0.7
		c-0.2,0-0.3,0-0.5,0C48.5,67.2,47.7,67.4,47.8,66.7L47.8,66.7L47.8,66.7z M51.6,68c-0.2-0.8,0.7-1.3,1-2.1c0.2,0,0.2,0,0.5,0.2
		c0.2,0.5-0.3,1.2-0.8,2C52.3,68,52,68.2,51.6,68L51.6,68L51.6,68z M46.5,69c-0.6-0.7,1.3-1,1.3-0.4C47.5,69.3,47,69.2,46.5,69
		L46.5,69L46.5,69z M75,73.8l0.5-2.6l0.3-1.3c0.5-1.5,2-1.5,2.8-1.9c0.4-0.2,0.4-0.7,0.4-0.8c-0.1-0.7-0.3-1.4-0.4-2
		c-1.6-1.4-3.1-1.8-4.8-2.7c-0.1,0-0.1,0-0.3,0l-1.2,0.9L72,63.4l-0.2,0.2l-0.8,0.8c-0.7,1-1.3,3.3-1,4.6c0.4,0.3,1.3,1.3,1.7,1.3
		c0.9,0.5,0.1,1.5,0,2c0,0.2-0.2,0.5-0.5,0.4h-1.2c-1.3-0.2-2,0-3.1,0.3l-2.6,0.5c-0.3,0-1,0-1.1-0.4L63,72.8
		c0.2-0.4,0.2-0.7-0.2-0.8c-0.6,0.1-1.1-0.5-1.1-0.9c0-0.3,0-0.5,0.3-0.8c0.8-0.3,0.4-0.5,0.4-0.5l-1.1-0.3c-0.2,0-0.2-0.2-0.4-0.2
		c-0.3-0.2-0.5-1.1,0.5-1.3H62l3-0.7c0.7-0.5,0.7-0.5,0.9-1.3v-1c-0.5-1.2-0.8-2.4-0.9-3.4c0-1.3,0-2.5,0-3.8
		c0.2-0.4,0.2-0.4-0.5-0.4l-1.3,0.8c-1.2,0.3-2.5,1.5-3.6,2.2l-0.9,1.1c-1.2,1.9-2.2,3.6-3,5.3c-0.5,1.3-1.2,2.6-1.3,3.9l0.1,0.5
		c0,0.6-0.1,1.7-0.8,2.3c-0.3,0-0.3,0-0.5,0c-2.3-0.5-4.4-2.6-6.4-2.3c-1,0.1-2,0.4-2.8-0.2c-0.9-0.7-0.6-0.7-0.3-1.6
		c0.3-0.3,1.2-1.5,1.8-2c0.1-0.2,0.1-0.5,0-0.5c-1.8,0-3.5-0.5-5.3-0.9c-0.6,0-1.2,0.2-1.2,0.7c0,0.8,0,1.1,0.4,1.6l0,0
		c0.3,1-0.4,1.5-1,1.5c-1.1-0.3-5.1-0.9-5.8,0.2c-0.4,0.3-1.3,0.7-1.9,0.3c-0.3-0.3-0.3-0.5-0.3-1c0-0.3,0-0.3-0.4-0.3H29
		c-0.4-0.4-0.9-0.7-0.6-1.1c0.2-0.3,0.6-0.7,0.6-1.1c0,0-0.1-0.2-0.4-0.2c-0.6,0.2-1.4,0.8-2.2,0c-0.1-0.3-0.1-0.5,0-0.9
		c0.7-0.7,2-1.3,3-2.2c1.3-0.7,3.1,0.5,4.6,0.9c0.5,0,1.6-1,1.6-1.9l-0.5-1.6c0.2-2.3-0.1-4.6,2.2-6.1c1.3-0.1,1.9-0.8,3.3-0.9
		c0.8,0.1,1.8,0.6,2.1,0.5c1.6-1,2.3-3.8,3.6-3.8c1.3,1.2,0.7,1.4,0.4,3.8c0,0.3,0.3,0.5,0.3,0c0.6-0.8,1.5-1.7,1.1-2.5
		c-0.5-1-0.3-2.5-2.3-3c-2.3,0.5-4.4,4.3-8.5,5.3c-1,0.2-1.7,1.3-2.5,1.1c-1.2-0.3-1.8-0.5-1.6-1.8c0.4-0.3,1.6-0.6,2.4-1.5
		c0-1-2.8,0.4-3.8,0.4c-1-0.6-1.6-2.5-2.4-3.5c-0.4-0.3-0.4-0.6,0-0.9c1.9-1.2,4.2-2.2,6.2-3.7c0.4-0.6,1-1.3,1.5-2.1
		c1-0.8,2.8-1.3,4.1-1.1c0.8,0,1.8-0.2,2.8-0.9c1-0.3,1.8,0,2.9,0.6l0,0c0.7,0.8,0,1.9,0.8,2.2c1.5,1.8,2,4.6,3.5,6.6
		c2.3,1.8,3.8,2.5,6.6,2.2c3.1-1.2,9.4-4.6,12.2-5c3,0,5.9,1.8,9,1.8c0.9-0.6,0.6-1.8,0.4-2.6c-0.4-1-1.3-1.7-2.1-2
		c-2.3-1.2-4.1-0.8-6.3-0.3L67.3,45l-2.1,1.2c-0.7,0.7-0.9,1.3-1.2,2c-0.5,0.8-1.2,0.8-2,0.7c-2.2-1.2-5.3-0.7-7.3-1.3
		c-2.7-1.5-3-2-3-4.8c0.5-1.6,2-1.8,3.5-1.6c2.4,1.3,0.7,4.8,7.3,3.4l1.1-0.5c1.5-1,4.9-3.1,6.6-3.3c2.6-0.9,5-1.1,7.3-0.3l1.8,0.8
		c1,0.6,2,1.8,2.5,3.3c0.3,0.8,0.7,2,0.7,3l-0.2,3.3c0,0.9,0.2,1.5,0.7,2.3c0.2,1.1,0,2.3-0.3,3.6c-0.8,2.5-2.5,5.6-1.5,5.6
		c1.3-0.8,1.8-1.7,2.6,0c0.3,1.3,0.7,3.1,1.3,4.3c0.7,0,1.8,0,2.4,0.7c0,0.5,0,0.8,0,1.2c-0.3,1.2-0.7,1.5-1.2,1.5
		c-2.5-0.5-2.6,2-3.8,2.2c-0.8,0.2-1.7-0.9-2.3-0.2c-0.5,0.5-0.8,1.2-1.5,1.5c-1,0.5-0.5-0.1-1.4-0.3c-0.5,0-1.5,1-1.8,1.2
		C75,74.1,75,74.1,75,73.8L75,73.8L75,73.8z M46.4,76.1c-0.5-0.4-0.3-0.9,0-0.9c0.4-0.3,0.4-0.5,1.1-0.2c0.4,0.2,0,1-0.1,1
		C46.9,76.1,46.7,76.1,46.4,76.1L46.4,76.1L46.4,76.1z M28.3,76.4c-0.3,0-0.5,0-0.8-0.3c0-0.4,0-0.9,0.5-0.9c0,0,0.1-0.2,0.3-0.2
		c0.3,0,0.8,0.2,0.9,0.4c0.2,0.3,0,0.3,0,0.3C29,76.1,28.9,76.3,28.3,76.4L28.3,76.4L28.3,76.4L28.3,76.4z M37,76.9
		c-0.3,0-0.3-0.5-0.3-0.8c0-0.2,0.2-0.4,0.5-0.4c0.3,0,0.6,0,1.3-0.3c0.3,0,0.7,0.3,1.1,0.6c0.2,0.3-0.8,0.8-1,0.9
		c-0.3,0.2-0.7,0.2-0.9,0.2C37.3,77.3,37.1,77.1,37,76.9L37,76.9L37,76.9z M37.8,78.4c-0.6,0-1.1-0.2-1.8-0.5
		c-0.9-0.6-0.5-1-2.3-1.6c-0.3-0.3-0.3-1,0.7-1c0.4-0.2,0.7-0.3,1.3-0.5c1.8-0.7,4.5,0.2,6.5,0.3c0.7,0,0.5,0.7,0.3,1
		c-0.5,0.2-0.9,0.3-1.2,0.7c-0.9,0.5-1.8,1-2.6,1.4C38.3,78.4,38.1,78.4,37.8,78.4L37.8,78.4L37.8,78.4L37.8,78.4z M61,83
		c-1,0-2.1-0.4-3.1-1.3c-0.4-0.7-0.5-1.2-0.7-1.5c-0.2-0.3-0.2-0.6,0-0.9l0.3-2.5c0.2-0.7,0.8-0.7,0.7,0v2.5c0,0.4,0.4,0.7,0.4,0.9
		c0.4,0.8,1.2,1.5,1.9,2.3C60.9,82.7,62,82.5,61,83L61,83L61,83z M35,84.5c-0.2-0.4-0.5-0.7-0.5-1.5c0-0.4,0.2-0.4,0-0.9
		c0-0.2,0-0.3-0.5-0.3c-0.8-0.4-1.6-0.9-2.3-1.4c0,0-0.3-0.1-0.3-0.3c0-0.3,0-0.8,0.3-0.8c1.2-0.4,2.3,0.2,3.3,0.8c1,0.3,1,1,1.2,2
		c-0.2,0.6-0.2,1.2-0.3,1.6C35.6,84.2,35.1,84.5,35,84.5L35,84.5L35,84.5z M40.8,85.2c-0.4-0.4-0.7-0.6-0.7-1.3c0-0.8-0.2-1.8,0-2.8
		c0.3-0.6,1.1-1.1,1.6-1.6c0.9-0.5,1.3-0.5,2.3-0.4c0.3,0.2,0.3,0.9,0,1.2c-1,0.8-2,1-2.5,2c-0.7,1.7,0.2,2-0.1,2.6
		C41.4,85.2,41.1,85.5,40.8,85.2L40.8,85.2L40.8,85.2z M36.8,86.1c-0.2-0.4,0-0.8,0.3-1.2c0.5-0.2,0.6-0.2,0.8-0.3
		c0.6,0.2,0.8,0.7,0.9,1.1c0,0.2-0.1,0.7-0.3,0.7c-0.5,0.2-1,0.3-1.5,0.2C37.1,86.5,36.8,86.5,36.8,86.1L36.8,86.1L36.8,86.1z
		 M40.9,89.9c-0.5,0-0.8,0-0.8-0.2c0-0.2,0-0.4,0.3-0.7c0.5,0,0.5,0,0.9,0.3c0.2,0.4,0.2,0.4,0,0.5C41.2,89.9,41.1,89.9,40.9,89.9
		L40.9,89.9L40.9,89.9L40.9,89.9z M35,90.3L35,90.3c-0.3,0-0.5,0-0.5-0.3c0-0.2-0.1-0.5,0.4-0.5c0.3,0,0.8,0,1.1,0
		c0.5,0,0.2,0.6-0.4,0.6C35.3,90.1,35.1,90.3,35,90.3L35,90.3L35,90.3L35,90.3z M37.5,93.4c-1.5,0-2.8,0-3-0.4
		c-0.1-0.5-0.1-1,0.4-1.1h0.5c1.8,0.6,3.3,0,5.1,0.3l1-0.3c0.3,0.1,0.1,0.3,0.1,0.4c0.9-0.3,1.2-0.2,1,0.2c0-0.4,0,0.5-0.5,0.5
		l-3.5,0.4H37.5L37.5,93.4L37.5,93.4z M16.7,96.5c-0.3-1.2,0-2.5,0.5-3.6c0.4-0.7,0.5-0.7,1-1.1H19c0.9,0,0,3.1-1.2,4.4
		C17.5,96.3,17.2,96.7,16.7,96.5L16.7,96.5L16.7,96.5z M26.4,97.2l-2.6-0.7l-3.3-1.5c-0.5-0.4,0-1.2,0.5-1.2l2.3,0.5
		c1.5,0.2,3,0.2,4.1,1.2C27.9,95.7,27.7,97.3,26.4,97.2L26.4,97.2L26.4,97.2z M80.8,98.6c-0.5-0.4-0.7-1.3-1.2-1.9
		c-0.2-0.5-0.2-1,0-1.5c0-0.3,0-0.6,0.5-0.6l0,0l2.6,1c0.3,0.2,0.2,0.4,0,0.8l-1.5,2.2C81.1,98.6,80.9,98.6,80.8,98.6L80.8,98.6
		L80.8,98.6L80.8,98.6z M33.2,100.3c-1.8-1.7-1-3.5-1-5.1C32,94.6,32,93.9,32,93.1c0-0.4,0.3-0.5,0.3-1c0-1,0-2-0.2-2.9l0.2-1.6
		l-0.2-1.5c-0.3-1.4-0.2-1.6-1.5-1.4c-0.4,1-0.5,2.6-0.5,4l-0.5,2c0,0.1-0.3,0.3-0.7,0.3c-0.3,0-0.4-0.3-0.6-0.9
		c0.2-4.9-0.4-5.6,0.6-6.3c1-0.8,0-1.7-0.6-2.3l-3.3-4.3c-0.3-0.4-0.1-0.4,0-1c0-1,0.8-2.1,1.2-2.8l0.9-1c1.8-0.7,3.7,1,5.6,0.4
		l1.6-0.7c1.7-0.4,3.5-1,5.5-0.4l3.1,0.5c1,0.4,1.7,0.7,2.5,0.7c0.9-0.3,1.2-0.5,2-0.7l1,0.4l1.3,1.5l0.3,1l0.4,0.4v0.8
		c-0.2,0.8-0.7,1-1.4,1.7c-0.4,0.3-1.3,0.8-1.3,1l-0.4,0.8l-0.1,1l-0.6,1.4l-0.9,1l2,0.7c0.1,0,0.1,0.2,0.1,0.3l0.4,2.6l0.1,0.8v1.6
		l0.2,1.9c0.1,0.3,0.3,0.7,0.3,0.7l0.8,0.9c0.7,1,0.5,2.3-0.5,3c-0.3,0-0.3,0.2-0.6,0l-0.9-0.8c-0.4-0.3-0.8-1-1-1.5l-1.2-3.4
		l-0.2-5.3c0-1.5-0.6-1.5-1.2-0.8L44,84.5l-0.2,1.2l0.2,3.9l0.5,1.8l-0.2,1.2c0.2,1,0.4,1.8,0.4,2.8c0.3,0.9,0.5,1.4,0.7,2.2
		c0,0.7,0,1.1,0,2c-0.2,1-1.3,1.3-1.7,0.4l0,0l-0.2-1.2c-0.1-0.3,0-0.8-0.5-0.9c-1.6-0.8-3.3-0.4-4.9-0.5c-1.2,0.3-2.3,0-3.4,0.5
		c-0.2,0.2-0.4,1.7-0.5,2.2C33.8,100.3,33.6,100.3,33.2,100.3L33.2,100.3L33.2,100.3z M95.3,99.5c0-0.7,0.2-0.9,0.5-0.9
		c1.1-0.2,2,0.1,3.3,0.9c0.4,0.4,0.2,0.8-0.3,0.8C97.6,100.5,96.1,100.3,95.3,99.5L95.3,99.5L95.3,99.5z M98.1,105.3L98.1,105.3
		l0.5-1.2h0.2l-0.2,1.2c-0.2,0-0.2,0-0.2,0H98.1L98.1,105.3L98.1,105.3z M76.8,106.1c-0.2,0,0-0.7,0-1.1c0-0.2,0.3-0.2,0.5-0.5
		l0.7-0.6c0.3,0,1.1,0,0.7,0c0.4,0-0.5,1.3-0.9,2l-0.3,0.3C77.5,106.2,77,106.2,76.8,106.1L76.8,106.1L76.8,106.1z M72,107.9
		c-0.5,0-0.8-0.3-1.1-0.5l0,0c0-0.2,0-0.5,0.2-0.5c0.7,0.3,1.3,0.3,2,0.7C73.5,107.7,72,107.9,72,107.9L72,107.9L72,107.9L72,107.9z
		 M41.9,108.9c-0.8,0.2-1-1-0.5-1.3c2.4-1.3,4.9-2.3,7.1-3.5c0.8-0.3,1.3,0,1.7,0.2c0.5,0.6,0.3,1.3-0.2,1.9l0,0
		c-1.2,1-2,1.3-3.3,1.7l-4.6,1H41.9L41.9,108.9L41.9,108.9z M94.5,109.6L94.5,109.6c0.2-0.5,0.8-0.5,1.3-0.5h0.5
		c0.2,0,0.2,0.5-0.2,0.5l-1.5,0.2L94.5,109.6L94.5,109.6L94.5,109.6z M34,111.3c-0.4,0-0.6-0.3-0.4-0.8l1.2-0.3H36
		c1-0.3,1.8,0,2.8,0.2c0.1,0.3,0,0.7-0.2,0.7l-0.2,0.1h-0.7l-1.3,0.2h-0.6h-0.7L34,111.3L34,111.3L34,111.3L34,111.3z M34.5,118.3
		c-0.8-0.4-1.3-1.5-2.1-2.1l-0.7-0.7l0,0c0-1-1-1-1.5-1.5c-1-0.2-1.5,0.5-2.5,0.5c-0.3-0.2-0.3-0.8-0.3-1.3l0,0
		c0.5-0.7,0.9-0.9,1.3-1.4c0-0.2-0.1-0.2-0.3-0.2l-1.3,0.4c-0.3,0.1-0.3,0.3-0.8,0.3l-0.5-0.9c0-0.5,0.2-1.2,0.5-1.6
		c0.1-0.5,0.9-0.2,0.8-0.7c-0.1,0-0.3-0.2-0.8,0l-0.6,0.5h-0.5l-0.6-0.5c-0.5-0.4-0.4-1-0.1-1.2l1.4-1.4c1-0.3,1.7-1.2,2.8-1.4
		c0.4-0.2,1.1-0.2,1.1,0.2l0.5,1.2l0.7,1c1,0.8,2.1,0.2,3.1,0.2c0.8-0.2,2-0.3,1-1.1l-1.1-0.3l-2.2-0.9l-0.5-0.3
		c-1-1-1.5-1.3-2.2-2.3c-0.4-0.2-1-0.3-1.6-0.2l0,0c-1.1,0-2.2-1-3-1.4c-1-0.7-2-1.5-2.8-2c-0.6-0.3-1.2-0.5-1.8-0.5
		c-0.5-0.1-0.8,1.2-1.1,2c0,0.6-0.5,0.9-0.7,1c-0.8,0.5-1.8,0.5-2.5-0.2c-0.3,0-0.3-3.1-0.5-4.4c0-0.7-0.4-1.3-0.6-2
		c-0.4-0.7-0.9-1.7-1.6-2.1l-1.9-1.4l-1.1-0.8c-0.2-0.7,0.3-1.6,1.1-1.3l0.8,0.4l2.3,1.2c0.4,0,0.5,0,0.4-0.7c-0.9-0.3-2-1.3-2.6-2
		c-0.5-0.5,0-1.3,0.7-1.3c1.3,0.3,1.6,0.3,2.8,1.3c0.8,0.3,1.2,0.4,1.2-0.5c0-0.5-1.2-0.8-1.7-1.2c-0.6-0.2-0.9-0.5-1.1-1.2
		c0-2.1,2.6-0.5,3.1,0l3.8,2.1c0.5,0.2,0.8,0.5,1,1l0.2,2.3c2.9,1.1,5.8,0.4,8.5,2c0.7,0.2,0.7,0.8,0.5,1.2l-0.4,1.5V97
		c0.2,1.2,0,2.4,1,3.3c0.3,0.3,1.3,1.3,1.5,1.5l2,1.3c0.2,0.1,0.8,0.1,0.8,0l0,0c1-1,0-2.3,0.7-3.7c0.4-0.3,0.9-0.3,1.2,0
		c0.8,1.3,0.5,3,1,4.3c0.2,0.3,0.3,0.6,1.1,0.3c0.4,0,0.4-0.8,0.5-1.5l0.3-2.8c0-0.7,1-0.7,1.5-0.2c0,0.6,0.2,2.4,0.7,2.9
		c0.9,0,2.8-1.4,3.8-2c0.4-0.3,0.4-0.3,0.2-1.1l-0.7-2.2c0-1,0-1.6,0.9-1.1l0,0c0.8,0.3,1.3,1.5,2,2c1.3-0.5,2.4-2.5,2.9-4
		c0-0.3,0.1-0.5,0.5-0.7c0.5-0.2,0.5-0.2,0-0.6c-0.8-0.5-1.5-1.2-2.3-1.8c-0.2-0.2-0.3-0.5-0.5-0.7c-0.3-0.5,0.2-0.6,0.2-0.6
		c1.3-0.4,2.3-0.7,3.6,0.3l2,1.3c0.3,0.2,0.5,0.7,0.7,1.2c0,1.3-1.2,2.8-1.5,4.1c-0.8,1.8-1,3.6-0.5,5.4c0.2,0.2,0.3,0.5,0.6,0.4
		c2.2,0.3,5.6-0.2,6-0.4c0.9-0.3,1.3-0.5,2-1.2c0.6-0.3,0.8-1.3,1.6-2.6c0.5-1,0.5-1.6,0-3.1c-0.8-0.5-0.8-1-0.9-1.3
		c0.2-1.3,1.8-1,2.6-0.5c0.5,0.5,0.9,1.2,1.5,1.7c0.2,0.3,0.5,0.3,0.8,0c1.3-0.8,2.8-1.7,4.1-2.6c0.3-0.7,0.9-1.3,1.8-1.3
		c1.5,0,3-0.5,4.5-0.8c1.5-0.3,3-0.2,4.5-0.3c0.8-0.8,0.8-1.3,0.2-1.9l0,0c-0.2-0.5,0.5-1.2,1-1.3c2,0,1.7,3.1,2.7,4.4
		c0.2,0.7,1.1,0.7,1.1,0.3l0,0l0.8-2.2c0.9-0.7,1.5-1.2,2.3-1.7c1.2-0.2,2.3,0.5,1.7,1.3l-0.9,0.7c-0.8,0.5-0.8,1.7-1.2,2.3
		l-0.1,1.6c0,0.9-0.4,1.8-0.4,2.3c0.5,1.2,0.7,1.2,1.5,2c0.3,0.3,0.7,0,1-0.4c1.5-1.1,1.7-1.6,2.3-3.3c0.5-2.2,0.9-3.6,0.1-5.4
		c-0.3-0.8-0.7-1.5-1.4-1.8c-3-1.1-6.9-4.3-10.4-2.3c-2.1,1.2-4.8,2.3-7.1,3.6c-0.9,0.5-1.8,1.3-2.2,1.7c-1.7,0.9-3.7,1.3-6,1.6
		c-4.1,0-8.5,0.4-12.2-1.6c-0.8-0.7-1.5-0.7-1.9-1.2c-1.7-1.2-2.8-3-4.1-4.1c-0.4-0.7-0.8-1.3-0.2-1.3c0.6-0.2,2.1-0.4,3.1,0.3
		c0.8,0.5,1.1,1,1.8,1.5l0.8,0.7c2.4,2.1,4.9,2.1,7.3,2.4c1.6,0,2.8,0,4.4-0.1c0.5,0,1.5-0.2,2.2-0.4c1.5-0.3,3.3-0.6,4.6-1.6
		c0.6-0.3,1.5-0.7,2.1-1c1.4-0.4,4.8-2.3,6.3-3.1l3.1-1.4c1.8-0.6,3.8,1,5.6,1.4l1.5,0.3c0.1,0,0.1,0,0.1-0.3c0-1.4-0.8-3-1.8-4
		c-2-1.5-4.3-1.8-6.6-1.7c-1.6,0.5-3,1-4.3,1.8c-1.3,0.8-2.8,2.4-3.3,3.6l-0.7,2.1c-0.7,1.1-1.5,1.1-3,1.3c-1.3-0.4,0-2.1-1.5-1.8
		l-2,1.2c-1.2,0.4-1.9,0.9-3.3,1.2l0,0c-4,0.4-6.7,0.1-10-1.8C53.7,81,54,80,54.7,77.2c0.6-1.3,1.5-2,2.8-3c0.5-0.3,2.8,0,3.5,0.5
		c0.7,0.3,0.7,1,0.2,1.6c-0.6,1.8-0.6,2.3,0.5,3.6c0.8,0.7,2,0.8,2.8,1c2.9-0.3,3.9-0.8,6.7-1.8l5.2-2.5c2.1-1.5,4.4-2.5,6.4-3.5
		c3.8-1.1,7.1-1,8.5-0.3c0.9,0.5,0.9,1.2,2.8,1.8c0.4,0,0.4-2.3,1.3-2.3l0,0c1.3-0.2,2,0,2.2,0.7c0.2,0.9,0.2,1.8-0.2,2.8l-0.9,3.3
		L96.1,83c0,0.8,0.2,1,0.5,1.5l1.2,0.9c0.8,1,0.3,2.5,0,4c0,1.3-0.2,3.1-0.2,4.5c0.2,1.1,0.7,1.8,1.6,2.4l2.9,1.3
		c0.5,0.3,0.5,0.5,0.5,1.2c0,0.5-0.2,1-0.4,1.5l-0.3,1.3c-0.5,1.1-1.2,2.8-0.7,4l1.2,0.6l0.2,0.2c0.3,1.2,0.5,2.4,0,3.2
		c-0.5,0.2-1.2,0.6-1.8,0.6l-0.8,0.2l-4.3,1.8c-1.2,0.6-1.8,1.1-2.6,2.3l-0.2,0.8c0,0.7-0.5,1-1,1.2l0,0c-0.5,0-1.2-0.3-1.5-0.8
		c0-0.4,0.4-1.8,0.4-2.3l-0.4,0.5c-0.5,0.5-0.8,0.5-1.1,0.7c-0.7,0-0.9-0.2-0.9-0.7l0.3-2.6l-0.7,0.7l-0.5,0.4
		c-0.7,0.3-1.6,0.1-1.8-0.5c0-1.5,1.1-2.6,1.8-3.8c0.5-0.3,0.8-0.5,1.2-0.8c1-0.2,1.8-0.6,2.8-0.7l3.2-0.6c0.5-0.5,0.9-1.7,0.6-2.3
		c-1.2-1.3-5.5-1.3-7.4-3.6c-0.4-0.4-1.3-2.2-2-2.3c-1,0.7-1.5,2-2.2,3l-0.5,1c-0.9,1.2-0.7,2.6-0.7,3.8c0,0.8-0.7,1-1.3,1.2
		c-0.7,0.3-1.7,0.5-1.8,1.2c0.2,0.5,0.5,0.9,0.5,0.9c0.3,1.1,0,1.7-0.5,2c-0.3,0.3-0.6,0.5-1.2,0.6l-4.4-0.1c-1.1-0.3-2.3,0-3.3,0.1
		l-1.8,1c-0.7,0.9-1.5,1.1-2.7,1.3c-0.8,0.2-1.1-0.3-1.1-1l0,0c0-0.8,0.3-1.1,0.5-2l0,0c-1.7,0.8-2.5-0.8-1.5-1.8
		c0.4-0.3,0.9-0.6,1-1.1c0,0-0.1,0-0.6,0c-0.5,0.3-1.3,0.6-2,0c-0.5-0.5-0.8-1.2-0.2-1.5c1.1-0.5,2.4-1.3,3.8-1.8
		c0.8-0.7,2.1-1,3.1-1.2c1.7-0.4,3.5,0.4,4.8,0.3l1-0.5c0.7-0.8,1.8-2.1,2-3.1c-0.2-1.7-0.3-5-1.2-5.3c-0.9-0.5-3.4,0.8-4.8,2.1
		c-3.1,2.5-5.9,6.6-9.7,8.5l0,0c-0.7,0-0.7,0-0.8,0c-1.3,0-5.1,0.3-6.1,1.7c-0.1,0.5,0,4-1.1,4.6c-0.8,0.2-1.9,0.2-3.1,0.4
		c-3.4,0.7-6.7,1.5-10.2,1.5c-1,0.8-2.2,0.8-3.3,1l-0.6,0.2c-0.5,0.8,0.3,1.5,0.3,2.3C36.3,117.1,35,118.3,34.5,118.3L34.5,118.3
		L34.5,118.3z M44.1,119.8l-1-0.7v-0.3l0.5-0.5h0.5l2,0.5c0.3,0,0.3,0.3,0,0.3l-0.4,0.2l-0.5,0.2l-0.9,0.4L44.1,119.8L44.1,119.8
		L44.1,119.8z M43.7,122.7c-0.2,0-0.7-0.2-0.7-0.4c-0.1-0.1,0.2-0.3,0.5-0.3c0.3-0.2,1.5,0.3,1.8,0.1c0.1,0,0-0.3,0.3-0.3l0.6,0.3
		c0.4,0.3,0.2,0.3,0,0.5c0,0.2-1.3,0.2-1.6,0.2L43.7,122.7L43.7,122.7L43.7,122.7z M38.5,122.9l-0.7-0.3c-0.3-0.2-0.3-0.3,0-0.4
		l0.9-0.4h0.3l0.9-0.3c0.6,0,0.3,0.7,0.2,0.9l-0.7,0.5l-0.4,0.2L38.5,122.9L38.5,122.9L38.5,122.9z M50.8,130c0-0.5-0.1-1.8,0-2.2
		c0.5-0.9,1.5-2.3,1.7-3.5c0.2-0.3,0.8-0.3,1.1-0.3c0.8,0.9,1,1.7,1,2.8c-0.2,0.3-1,2.1-1,2.6c0,0.3-1.1,1.1-1.5,1.1
		C51.4,130.6,51.1,130.6,50.8,130L50.8,130L50.8,130z M62.5,130.6L62.5,130.6c0-0.7-0.3-1-0.5-1.5c0-0.3-0.3-0.6,0-1l2-1l2.8-0.6
		l0.5-0.3l1-0.2c1.5-0.4,0.9,0.8,0.5,1.1l-1,0.5c-0.5,0.5-1,1-1.7,1.8l-1.8,1.4C63.3,132.4,62.4,131.8,62.5,130.6L62.5,130.6
		L62.5,130.6z M53.4,134.6c-0.2-0.4,0.2-1.3,0.2-1.6c0.1-0.3,0.8-0.5,0.8-1l0.7-1c0,0,0.8-0.9,0.7-0.3l-1.2,3.8
		c-0.2,0.5-0.6,0.6-0.9,0.5L53.4,134.6L53.4,134.6L53.4,134.6z M81.1,133.3c0.2-1.1,0.5-2.3,0.7-3.3c-0.1-0.9-0.7-1.7-0.8-2.5
		c-0.2-0.7-0.8-0.8-1.3-1.3c-0.6-0.3-1.7-1-1.8,0.7c0.5,1.2,1.2,2.1,1.8,2.9c-1.5,0-2.6-2.3-3.3-3.1c-0.2-0.5-0.4-1-0.5-1.5
		c0.2-1.3,0-1.5,1.2-1.8c1.2-0.2,2.3,0.3,3.1,0.6c1.2,0.7,2.9,1.6,3.3,2.8c0.8,1.4,1.3,3.4,1.6,4.9c0.4,0.9,0,1.8,0,2.7
		C85.1,135.9,81.4,135.9,81.1,133.3L81.1,133.3L81.1,133.3z M42.9,134.9c-0.5-0.4-0.8-1.8-0.2-2.3c0.8-0.5,2.7-0.5,3.1-0.5
		c0.2,0,0.5,0,0.5,0.5c0.2,0,0.4,0,0.7,0c0.3,0.2,0.5,1.5,0,1.5c-0.3,0-0.7-0.9-0.9-0.7c-0.2,0.1-0.4,0.4-0.6,0.7
		c-0.1,0.8-1.4,1.1-1.4,1.3C43.7,135.6,43.2,135.4,42.9,134.9L42.9,134.9L42.9,134.9z M57,135.4c-0.3-1.6,0-3.3,0.5-4.5l0.7-0.9
		c0.2-0.2,0.2-0.2,0.2-0.2c0.7-0.1,0.9,0.9,1.2,1.1l0.2,1.5c0,0.5-0.4,1.5-0.4,2.1l-0.3,0.9l-0.1,0.2C58.4,136.1,57,135.9,57,135.4
		L57,135.4L57,135.4z M49,137.6c-0.2,0.1-0.3-1.1-0.2-1.6c0.2-0.4,1.2,0.2,2.3,0.5l1,0.3C51.6,137.6,49,137.7,49,137.6L49,137.6
		L49,137.6z M87,139.2c0-0.2,0.3-1.1-0.1-1.3c0,0,0,0-0.2-0.2c-0.2-0.1-0.2-0.3-0.2-0.6c0.2-0.2,0.3-0.2,0.4-0.2
		c0,0,0.3,0.2,0.5,0.4c0.2,0.2,0.2,0.3,0.2,0.7l0,0c0,0.1,0,0.4-0.2,0.6C87.5,138.7,87.4,139,87,139.2L87,139.2L87,139.2z
		 M71.6,140.2l0.2-0.8c0-0.2,0-0.5,0.3-0.4l0,0c0.3-0.2,0.7-0.3,1-0.3l0,0l-0.3,0.8c0,0.4-0.5,0.7-0.7,0.7L71.6,140.2L71.6,140.2
		L71.6,140.2z M58.2,141.8c-0.1-0.4,0.4-0.5,0.2-0.4L58.2,141.8L58.2,141.8L58.2,141.8z M55.4,141.8c-0.2,0-0.2-1.9,0.1-2.3l0.7-0.3
		c0.4-0.2,1.3-0.5,1.5,0c0,0.5-0.3,2.5-0.7,2.3l-0.4,0.4L55.4,141.8L55.4,141.8L55.4,141.8z M53.6,148.2c-0.2,0-0.8-0.2-0.8-0.7
		c-0.2-0.2,0.5-0.3,0.5-0.9c0-0.1-0.2-0.3-0.5-0.3c-0.3,0-0.3,0.2-0.7,0.3c-0.2,0-0.5,0.4-0.5,0.4c0,0.2-0.9,0.4-0.9,0
		c0-0.5,0-1.5-0.3-1.5c0,0-0.7,0.2-1,0.3c-0.5,0.2-1.5,0-1.3-0.3l0,0l0.7-1.8c0.2-0.2,0.3-0.5,0.5-0.5l0.8-0.2l2.1-0.6l1.3-0.2
		c0.4-0.2,0.4-0.2,0.8-0.5c0-0.5,0.2-1-0.1-1.1c-0.8-0.5-1.5-0.4-2.1-0.2c-1.1,0.2-1.8,0.8-3.1,0.5l-3.6-0.7c-0.5,0-0.7,0.2-1,0.4
		c-0.3,0-0.6,0.7-0.5,1.1l0.5,1.3c0.4,0.9-0.3,1.5-0.9,1.6l-1-0.2l-3.1-0.8l-0.7,0.3c0,0-1.1,1.7-1.3,1.7c-0.2,0.6-1.1,0.8-1.3,0.1
		v-0.8l0.5-1.8c0-0.5-0.5-0.3-0.8-0.3c-0.5,0.3-0.8,0.7-1.1,1.5c-0.3,0.7-1.5,0-1.3-0.7l0,0c0-0.1,0.8-2,0.8-2.3
		c0.2-0.3,0-0.9-0.8-0.6L32,142c-0.4,0.6-0.7,0.3-0.7-0.2c0.3-0.8,0.7-1.6,1-2.3c0.4-0.6,0.7-1.1,1.3-1.1c2,0.4,4.6,1.5,6.5,1.4
		l0.5-0.2l0.3-0.3l0.5-1.3c0-0.5-1.5-2-1.8-3l-0.3-2.3l-0.2-0.5c-0.3-0.7-0.5-1.5,0.5-1.8l2.1-0.3l4.1-1.8c0.5-0.2,0.9-0.2,1.6-0.2
		c0.9,0,0.9-0.9,0-0.9l-4-0.1c-1.4,0.2-2.6,1.1-3.7,1.5c-0.5,0.1-0.9,0-1.2-0.5c-0.3-0.4-0.5-1.2,1-1.2l1.3-1.3c0-0.4,0-0.6-1.1-0.4
		l-1.8,1c-0.5,0.1-0.8,0-1.3-0.5l-1-0.9l-0.8-1.2c-0.4-1-0.4-1.7,0.3-2.2c0.7-1.1,3.8-2.4,5-3l0.5-0.6l0.3-0.7
		c0.2-0.7,0.4-1.1,0.8-1.1l0.7-0.2c1.7-0.8,4,0,5.6-0.7l0.5-0.3c1,0,1.6,0.2,2.6,0.6l0.5,0.5c0.2,0.5,0.2,0.5,0.2,1.1
		c-0.2,0.5,0.2,0.8,0.3,1.2l0.3,0.5l1.8,1.5l2,1.4l0.5,0.6l0.5,0.3l3.6,2.2c0.5,0.3,0.8,0.2,2.1,0l2.6-0.9l2.4-1.3l1.7-0.6l4.6-1.6
		c2.3-0.3,4.1,0.2,6.4,1.1l2,1c0.8,0.1,0.8-1.3,0.7-1.8l-1.7-2.6c-1.4-1.5-3.8-1.9-5.8-1.9l-2.1,0.5l-1.8,0.7c-1,0.8-1.6,1.8-2,3
		c0,0.9-0.9,1.2-1.3,1.3c-0.5,0-1,0-1.1-0.1c-0.2-0.3,1.1-1.5-0.7-1.4l-2.4,0.3h-0.5l-2.7,0.2c-0.8-0.2-2-0.2-2.6-0.5l-1.5-1.2
		c-0.3-0.5-0.6-1.2-0.8-1.6l-0.2-2.1c-0.2-0.5,0.3-1.7,0.6-1.8c1-0.9,2.3-0.8,3.3-0.7c0.2,0.3,0.4,0,0.5,0.3c0,0.9-0.1,1.7-0.1,2.6
		c0,0.5,0.1,1,0.1,1c0.1,0.5,0.8,1,1.4,1.2l0.7,0.2H65l1.8-0.7l1.7-0.7l3.6-1.9c1.7-0.8,3.8-1.2,5.9-1.3c1.5,0,3,0.2,4.3,1.3
		c0.8,0.4,1.6,1.5,2,1.9c0.5,0.7,0.8,1.5,0.8,2.3l0.4,1.4c0.2,0.3,0.2,3.6,0.2,3.9c0.2,0.5,0.3,0.9,0.7,1.2c0.3,1.2,0.3,2.5,0.3,3.5
		c0.2,0.3,0.3,0.3,0.3,0.5c0.1,0.9,0.1,1.8,0.1,2.8c0.7,1.3,0.7,1.2,1.7,1.8c0.7,0.4,0.7,1.6,0.7,2.3c0,0.3,0,0.5,0.3,0.7l0.8,0.9
		c0.4,0.2,0.9,0,1.5,0.4c0.3,0.3,0.3,0.5,0.2,1l-0.4,0.7l-2.5,1.8c-0.5,0.4-0.5,0.9-0.7,1.5l-0.3,1.5c-0.2,0.2-0.3,0.2-0.7,0
		l-0.7-0.8c-0.4-0.7-0.4-0.4-0.7-0.2l-0.8,1.8c-0.2,0.3-0.8,0.2-0.8-0.1c-0.2-0.5-0.2-0.8-0.5-1c-0.3,0-0.7,0-0.8,0.4v1.5
		c0,0.8-1.2,0.7-1.2,0.2v-0.8c0-0.5,0-0.5,0-0.7c0-0.2,0-0.5,0-0.8c0-0.8,0-0.8,0.5-1.8c0-0.2,1.9-2,2.8-2l2.1,0.5
		c-0.7-0.6-1-1.3-1.1-2c0-0.5,0,1.3-0.5,1.1h-0.7c-0.4-0.3,0.9-0.7-0.4-0.9c-1.2-0.5-3.1-0.9-3.4-1.2l-1.2-0.8L79,136l-0.9-1.2
		c-0.7-0.5-2.3,0.2-2.3,1.2l0.2,0.8l0,0l-0.2,1l-0.5,1.3l-0.5,0.5c-0.2,0.2-0.5,0.2-0.5,0.3l-0.2,1.2l-0.2,0.7l0.3,0.3l0.3,0.4
		c0,0.1,0.4,0.5,0.2,0.8l-0.2,0.8c-0.3,0.2-0.5,0.4-0.8,0.4c-1.2,0.2-2.6-0.8-3.8-0.4l-0.8,0.2c-0.3,0.2-0.1,0.3-0.3,0.5l0,0
		c-0.4,0.3-0.9,0.3-1,0.3l-0.3-0.5l-0.3-0.5c-0.2,0-0.4-0.8-0.5-0.4l-0.8,1l0,0c-0.3,0.5-0.5,0.5-0.5,0l0.2-1l-0.2-0.4
		c-0.3-0.6-0.8,0-0.9,0l-0.5,1l-0.5,0.3c-0.2,0.2-0.2,0.2-0.5-0.2c0,0-0.2-0.2,0-0.4l1.3-2.7c0.4-0.7,0.9-0.7,1.2-0.8l3-0.6
		c0.3,0,0,0,0.3,0c1-0.4,1.7-2,2.2-3c0-0.3,0-0.9,0-1.3c0.2-0.6-0.7-1.8-0.9-2.3c-0.3-0.5-0.8-0.6-0.7-1.3l0.4-1.3
		c0-0.5,0.3-0.7,0.5-0.9c0-0.1,0.9-0.3,1.5,0c0.3,0,0.4,1.8,0.9,2.8c0.3,0.1,0,0.5,0.7,0.1c0.5-0.1,1.3-0.6,1.7-1.2
		c-0.2-1.1-1-2.6-1.8-3.6l0,0c-0.3-0.5-0.8-0.5-1.2-0.4c-0.7,0.4-2,1.5-2.8,2.5c-1.4,1-5.7,5.4-7.1,5.8c-0.5,0.2-0.5,0.2-0.7,0.5
		l-0.5,1.2l-0.1,0.1l-0.7,1.8c-0.1,0-0.1,0.2-0.4,0.4l-0.2,0.4l-0.7,1.5l0.2,0.3l0.7,0.5l0.4,0.8v0.6l-0.9,0.5l-1.1,0.5
		c-0.2,0.2-0.3,0-0.5,0c-0.7,0-1.7,0.7-2.2,1.3l-0.5,1c0,0.1-0.7,0.6-1,0.8C53.8,148.2,53.8,148.2,53.6,148.2L53.6,148.2L53.6,148.2
		L53.6,148.2z M7.3,94.1V32.4l102.3,0v60.9c0.5,39.6-21.9,62.8-51.2,74.5C25.7,154.6,7.4,127.6,7.3,94.1L7.3,94.1L7.3,94.1z M3,97.7
		V15.3h5.3v12.6h12.2v2.2h-15l0,66.9c0,28.8,17.3,61.8,52.8,73.2c36.1-12.1,53.6-42.7,53.1-73.5l0.2-66.6H96.4v-2.2h12.2V15.4h5.3
		v81.3c0,32.8-16.2,63.9-55.5,76.1C20,160.8,3,128.6,3,97.7L3,97.7L3,97.7z"/>
</g>
</svg>
