<svg id="Layer_1" data-name="Layer 1" xmlns="http://www.w3.org/2000/svg" xmlns:xlink="http://www.w3.org/1999/xlink" viewBox="0 0 337.96 401.91"><defs><style>.cls-1{fill:none;}.cls-2{clip-path:url(#clip-path);}.cls-3{fill:url(#linear-gradient);}</style><clipPath id="clip-path" transform="translate(-5.37 25.63)"><path class="cls-1" d="M51.83,135.77m38,153.46a18.76,18.76,0,0,0,2.83-13.13c-1.3-7.19-6.84-13.57-6.83-13.64s-5.37,5-4.48,12.53S89.8,289.31,89.81,289.23ZM44.09,127.94c-.05-.06,3.51-9.62,2.82-17.88a17.32,17.32,0,0,0-6.59-12.41c-.06-.07-5.91,10.66-4.45,19.15A14.89,14.89,0,0,0,44.09,127.94Zm15.43-.89c6.51-3.69,11.25-11.49,11.33-11.52a15.52,15.52,0,0,0-13.53,0c-7.24,3.58-11.36,13.23-11.27,13.2A18.49,18.49,0,0,0,59.52,127.05ZM38.18,147.67s2-9.8,0-17.67a17.54,17.54,0,0,0-8.45-11.1c-.07-.06-4.11,11-1.38,19.09A15.09,15.09,0,0,0,38.18,147.67Zm15.08-2.94c5.86-4.45,9.27-12.6,9.35-12.63a15.69,15.69,0,0,0-13.31,1.74c-6.55,4.41-9.15,14.33-9.07,14.29A18.52,18.52,0,0,0,53.26,144.73Zm-18,23s.57-9.84-2.58-17.22a17.64,17.64,0,0,0-10-9.62c-.07-.06-2.38,11.27,1.5,18.74A15.22,15.22,0,0,0,35.26,167.69Zm14.48-4.94c5.15-5.14,7.28-13.51,7.35-13.55s-7.15-1.61-12.87,3.5-6.93,15.2-6.86,15.16A18.61,18.61,0,0,0,49.74,162.75ZM35.21,187.7c-.06,0-.81-9.74-5-16.52a17.75,17.75,0,0,0-11.29-8c-.08,0-.72,11.33,4.16,18.12A15.32,15.32,0,0,0,35.21,187.7Zm2.1-.13a18.6,18.6,0,0,0,11.54-6.72c4.37-5.76,5.27-14.21,5.33-14.26s-7.3-.6-12.23,5.19S37.25,187.62,37.31,187.57Zm.61,19.82c-.07,0-2.13-9.49-7.2-15.57a17.85,17.85,0,0,0-12.3-6.32c-.08,0,.87,11.22,6.62,17.24A15.33,15.33,0,0,0,37.92,207.39Zm12.56-8.62c3.54-6.29,3.25-14.71,3.3-14.76s-7.3.41-11.38,6.78S39.92,207,40,207A18.56,18.56,0,0,0,50.48,198.77ZM29.89,223.65a15.25,15.25,0,0,0,13.36,2.83c-.07,0-3.38-9.1-9.23-14.4a17.75,17.75,0,0,0-13-4.53C20.91,207.51,23.38,218.49,29.89,223.65Zm24.63-7.43c2.66-6.7,1.23-15,1.27-15s-7.17,1.42-10.34,8.26-.26,16.41-.22,16.33A18.67,18.67,0,0,0,54.52,216.22Zm-3.43,28.45c-.07,0-4.57-8.57-11.06-13a17.75,17.75,0,0,0-13.5-2.7c-.09,0,3.83,10.51,11,14.74A15.2,15.2,0,0,0,51.09,244.67ZM60.86,233c1.74-7-.79-15-.76-15.06s-6.9,2.38-9.12,9.59,1.94,16.3,2,16.23A18.72,18.72,0,0,0,60.86,233Zm.47,28.71c-.07,0-5.7-7.89-12.73-11.41a17.58,17.58,0,0,0-13.72-.82c-.09,0,5.21,9.89,12.84,13.12A15.17,15.17,0,0,0,61.33,261.66Zm8.07-13c.76-7.2-2.81-14.78-2.79-14.84s-6.51,3.31-7.73,10.77,4.14,15.92,4.17,15.84A18.76,18.76,0,0,0,69.4,248.68Zm4.44,28.48c-.08,0-6.77-7.07-14.21-9.61a17.56,17.56,0,0,0-13.71,1.05c-.09,0,6.51,9.12,14.54,11.29A15.16,15.16,0,0,0,73.84,277.16Zm1.53-1.44A18.73,18.73,0,0,0,80,263.15c-.25-7.26-4.83-14.31-4.81-14.37s-6,4.18-6.19,11.76S75.35,275.8,75.37,275.72ZM88.5,290.87c-.09,0-7.78-6.11-15.52-7.63a17.56,17.56,0,0,0-13.46,2.91c-.1,0,7.73,8.19,16,9.25A15.19,15.19,0,0,0,88.5,290.87Zm16.68,11.62c-.07,0-8.71-5-16.65-5.46a17.53,17.53,0,0,0-13,4.73c-.1,0,8.9,7.08,17.38,7A15.14,15.14,0,0,0,105.18,302.49Zm1.08-1.81a18.59,18.59,0,0,0,.86-13.43c-2.39-7-8.83-12.56-8.83-12.62s-4.63,5.67-2.64,13.06S106.26,300.77,106.26,300.68Zm17.53,11.05c-.08,0-9.59-3.76-17.64-3.12a17.53,17.53,0,0,0-12.32,6.47c-.1,0,10,5.82,18.54,4.57A15.1,15.1,0,0,0,123.79,311.73Zm.81-1.94a18.38,18.38,0,0,0-1.24-13.45c-3.49-6.59-10.8-11.26-10.8-11.33s-3.79,6.27-.67,13.34S124.6,309.87,124.6,309.79Zm19.59,8.5c-.09,0-10.42-2.38-18.45-.63a17.52,17.52,0,0,0-11.46,8.14c-.09.05,11,4.39,19.54,1.95A15,15,0,0,0,144.19,318.29Zm.5-2a18.07,18.07,0,0,0-3.43-13.15c-4.62-6-12.74-9.67-12.75-9.73a15.33,15.33,0,0,0,1.41,13.32C134.21,313.37,144.7,316.34,144.69,316.25Zm2.46,7.64a17.45,17.45,0,0,0-10.4,9.68c-.09.07,12,2.8,20.37-.84a14.79,14.79,0,0,0,9.14-10.85C166.18,321.94,155.09,321,147.15,323.89ZM146,299.43a15.14,15.14,0,0,0,3.62,13c5.48,6,16.82,7.44,16.8,7.35a18,18,0,0,0-5.74-12.53C154.92,301.94,146,299.49,146,299.43Zm-81.5-197a51.66,51.66,0,0,0,6.87-17A32,32,0,0,0,56.28,96.92a29,29,0,0,0-4.73,17.7A45.56,45.56,0,0,0,64.52,102.42ZM317.15,116.8c1.46-8.49-4.39-19.22-4.45-19.15a17.32,17.32,0,0,0-6.59,12.41c-.69,8.26,2.87,17.82,2.82,17.88A14.89,14.89,0,0,0,317.15,116.8Zm-21.45-1.32a15.51,15.51,0,0,0-13.53,0c.08,0,4.82,7.83,11.33,11.52A18.49,18.49,0,0,0,307,128.68C307.06,128.71,302.94,119.06,295.7,115.48Zm19.14,32.19a15.09,15.09,0,0,0,9.8-9.68c2.74-8-1.3-19.15-1.37-19.09a17.54,17.54,0,0,0-8.45,11.1C312.83,137.87,314.89,147.62,314.84,147.67Zm-11.12-13.83a15.69,15.69,0,0,0-13.31-1.74c.08,0,3.49,8.18,9.35,12.63a18.49,18.49,0,0,0,13,3.4C312.86,148.17,310.27,138.25,303.72,133.84Zm16.62,16.63c-3.15,7.38-2.53,17.18-2.59,17.22a15.22,15.22,0,0,0,11.11-8.1c3.88-7.47,1.57-18.8,1.5-18.74A17.64,17.64,0,0,0,320.34,150.47ZM308.8,152.7c-5.72-5.11-12.89-3.45-12.87-3.5s2.2,8.41,7.35,13.55a18.61,18.61,0,0,0,12.38,5.11C315.73,167.9,314.6,157.86,308.8,152.7Zm14,18.48c-4.18,6.78-4.94,16.48-5,16.52a15.33,15.33,0,0,0,12.13-6.42c4.88-6.79,4.24-18.17,4.16-18.12A17.72,17.72,0,0,0,322.8,171.18Zm-11.73.6c-4.93-5.79-12.26-5.14-12.23-5.19s1,8.5,5.33,14.26a18.58,18.58,0,0,0,11.54,6.72C315.77,187.62,316.06,177.62,311.07,171.78Zm11.23,20c-5.07,6.08-7.13,15.54-7.2,15.57A15.31,15.31,0,0,0,328,202.74c5.76-6,6.71-17.28,6.63-17.24A17.83,17.83,0,0,0,322.3,191.82Zm-11.69-1c-4.07-6.37-11.4-6.74-11.37-6.78s-.24,8.47,3.3,14.76A18.55,18.55,0,0,0,313,207C313.1,207,314.74,197.21,310.61,190.79ZM319,212.08c-5.84,5.3-9.15,14.38-9.22,14.4a15.25,15.25,0,0,0,13.36-2.83c6.51-5.16,9-16.14,8.9-16.1A17.78,17.78,0,0,0,319,212.08Zm-11.42-2.63c-3.17-6.84-10.38-8.22-10.34-8.26s-1.39,8.33,1.27,15a18.67,18.67,0,0,0,9.28,9.56C307.83,225.86,310.78,216.36,307.57,209.45ZM313,231.66c-6.49,4.44-11,13-11.06,13a15.19,15.19,0,0,0,13.6-1c7.13-4.23,11.05-14.76,11-14.74A17.75,17.75,0,0,0,313,231.66Zm-12.93,12.05c0,.07,4.23-8.94,2-16.23s-9.16-9.56-9.12-9.59-2.5,8.05-.77,15.06A18.76,18.76,0,0,0,300.06,243.71Zm4.36,6.54c-7,3.52-12.66,11.41-12.73,11.41a15.17,15.17,0,0,0,13.61.89c7.63-3.23,12.93-13.14,12.84-13.12A17.58,17.58,0,0,0,304.42,250.25ZM290,260.45c0,.08,5.42-8.31,4.17-15.84s-7.78-10.75-7.73-10.77-3.55,7.64-2.8,14.84A18.8,18.8,0,0,0,290,260.45Zm3.42,7.1c-7.44,2.54-14.13,9.62-14.21,9.61a15.15,15.15,0,0,0,13.38,2.73c8-2.17,14.63-11.29,14.54-11.29A17.56,17.56,0,0,0,293.39,267.55Zm-15.74,8.17c0,.08,6.54-7.52,6.33-15.18s-6.23-11.74-6.18-11.76-4.56,7.11-4.81,14.37A18.73,18.73,0,0,0,277.65,275.72Zm2.39,7.52c-7.74,1.52-15.44,7.65-15.52,7.63a15.18,15.18,0,0,0,12.93,4.53c8.32-1.06,16.15-9.24,16.05-9.25A17.56,17.56,0,0,0,280,283.24Zm-16.84,6c0,.08,7.61-6.59,8.49-14.24s-4.54-12.51-4.48-12.53-5.53,6.45-6.83,13.64A18.78,18.78,0,0,0,263.2,289.23Zm1.29,7.8c-7.94.45-16.58,5.49-16.66,5.46a15.19,15.19,0,0,0,12.28,6.28c8.48.07,17.48-7,17.38-7A17.53,17.53,0,0,0,264.49,297Zm-18.59-9.78a18.59,18.59,0,0,0,.86,13.43c0,.09,8.62-5.51,10.61-13s-2.7-13.06-2.65-13.06S248.28,280.29,245.9,287.25Zm1,21.36c-8.05-.64-17.56,3.16-17.64,3.12a15.1,15.1,0,0,0,11.42,7.92c8.55,1.25,18.64-4.53,18.54-4.57A17.53,17.53,0,0,0,246.87,308.61Zm-17.21-12.27a18.38,18.38,0,0,0-1.24,13.45c0,.08,9.59-4.28,12.71-11.44S240.4,285,240.46,285,233.15,289.75,229.66,296.34Zm-2.38,21.32c-8-1.75-18.37.68-18.45.63a15,15,0,0,0,10.37,9.46c8.52,2.44,19.63-1.9,19.54-1.95A17.52,17.52,0,0,0,227.28,317.66ZM211.76,303.1a18.11,18.11,0,0,0-3.44,13.15c0,.09,10.49-2.88,14.77-9.56a15.35,15.35,0,0,0,1.42-13.32C224.5,293.43,216.39,297.06,211.76,303.1Zm-5.89,20.79c-7.94-2.86-19-1.95-19.11-2a14.79,14.79,0,0,0,9.14,10.85c8.4,3.64,20.46.91,20.36.84A17.38,17.38,0,0,0,205.87,323.89ZM207,299.43c0,.06-8.89,2.51-14.67,7.82a18,18,0,0,0-5.74,12.53c0,.09,11.32-1.34,16.79-7.35A15.06,15.06,0,0,0,207,299.43Zm94.48-184.81a29,29,0,0,0-4.73-17.7,32,32,0,0,0-15.11-11.54,51.66,51.66,0,0,0,6.87,17A45.56,45.56,0,0,0,301.47,114.62ZM182,20.54a5.73,5.73,0,1,0-6.24,5.7c-4.68,12-16.27,19.13-16.27,19.13,20.52,13.27-3.18,27-7.07,8.57-1.07,13.75-13.27,9.9-13.27,9.9C128,56.52,141,46.14,141,46.14c-12.15,2-26.6-5.89-26.6-5.89,20.29,22.88,21.37,50.59,21.37,50.59,15.2-4.91,40.56-12.41,40.56-12.41s26.15,7.13,41.09,12.41c0,0,.56-27.71,20.84-50.59,0,0-14.45,7.92-26.6,5.89,0,0,12.93,10.38,1.8,17.7,0,0-12.21,3.85-13.27-9.9-3.9,18.42-27.6,4.7-7.08-8.57,0,0-11.59-7.17-16.27-19.13A5.74,5.74,0,0,0,182,20.54ZM176.31,317,174,319.76a4.21,4.21,0,0,0-1,2.83,4.14,4.14,0,0,0,1,2.82,3,3,0,0,0,4.72,0,4.23,4.23,0,0,0,1-2.83,4.31,4.31,0,0,0-1-2.83Zm41.41-122.73V176h-5.57v13.43L201.24,176H193v18.32h5.59V180.94l11,13.33Zm21.6-13.86V176h-20v18.32h20.24v-4.44H224.91V187h13.58v-3.86H224.91v-2.77ZM255.57,176H240.86v18.32h5.62v-4.69h8.34a7.62,7.62,0,0,1,1.16.08,1.72,1.72,0,0,1,.78.29,1.17,1.17,0,0,1,.44.58,2.74,2.74,0,0,1,.14.94v2.8h5.59v-3.76A3.3,3.3,0,0,0,260,187a3.45,3.45,0,0,0,2.38-1.62,7.35,7.35,0,0,0,.66-3.47,9.36,9.36,0,0,0-.39-2.95,3.67,3.67,0,0,0-1.28-1.84,5.39,5.39,0,0,0-2.33-.95A19.51,19.51,0,0,0,255.57,176Zm-.2,4.56a2.06,2.06,0,0,1,1.55.5,2.27,2.27,0,0,1,.47,1.57,3.15,3.15,0,0,1-.42,1.86,1.89,1.89,0,0,1-1.6.56h-8.89v-4.49Zm9,7.66c-.05.76-.07,1.24-.07,1.46a6.32,6.32,0,0,0,.4,2.46,3.07,3.07,0,0,0,1.31,1.47,6.31,6.31,0,0,0,2.38.73,26.08,26.08,0,0,0,3.59.21h7.47a29.62,29.62,0,0,0,3.41-.17,5.19,5.19,0,0,0,2.25-.72,3.87,3.87,0,0,0,1.66-1.89,8.33,8.33,0,0,0,.41-2.84,10.62,10.62,0,0,0-.3-2.73,4.11,4.11,0,0,0-1-1.81,3.94,3.94,0,0,0-1.77-1,10.24,10.24,0,0,0-2.67-.38l-9.2-.23a3.75,3.75,0,0,1-1.67-.35,1.22,1.22,0,0,1-.52-1.16c0-.64.22-1,.67-1.2a6.15,6.15,0,0,1,2-.24h6.45a1.62,1.62,0,0,1,1.84,1.82v.07h5.39c0-.18,0-.36,0-.53s0-.32,0-.48a4.56,4.56,0,0,0-1.42-3.78,7.36,7.36,0,0,0-4.55-1.13H272a26.47,26.47,0,0,0-3.75.23,4.49,4.49,0,0,0-2.54,1.18,3.87,3.87,0,0,0-1,1.74,9.73,9.73,0,0,0-.29,2.55,10.08,10.08,0,0,0,.28,2.62,3.35,3.35,0,0,0,.93,1.65,3.87,3.87,0,0,0,1.74.88,14.14,14.14,0,0,0,2.67.32l8.79.27c.46,0,.85.05,1.19.09a2.55,2.55,0,0,1,.84.23,1.06,1.06,0,0,1,.51.47,1.65,1.65,0,0,1,.16.8,1.37,1.37,0,0,1-.45,1.17,2.46,2.46,0,0,1-1.46.34h-7a10.74,10.74,0,0,1-1.23-.06,2.09,2.09,0,0,1-.81-.25,1.2,1.2,0,0,1-.44-.53,2.54,2.54,0,0,1-.14-.92v-.33ZM206.2,201.59h4.3c0-.14,0-.28,0-.4v-.39a6.33,6.33,0,0,0-.31-2.14,2.92,2.92,0,0,0-1-1.39,4,4,0,0,0-2-.75,26.9,26.9,0,0,0-3.11-.15H199.3a15.62,15.62,0,0,0-3.05.25,4.8,4.8,0,0,0-2.05.86,3.51,3.51,0,0,0-1.16,1.66,8.47,8.47,0,0,0-.35,2.62v3.82a7.08,7.08,0,0,0,.36,2.43,3.75,3.75,0,0,0,1.26,1.68,4.14,4.14,0,0,0,1,.56,5,5,0,0,0,1.15.31,9,9,0,0,0,1.34.14c.47,0,1,0,1.54,0h4.76a22.15,22.15,0,0,0,2.91-.17,6.48,6.48,0,0,0,2-.59,2.78,2.78,0,0,0,1.2-1.12,3.5,3.5,0,0,0,.4-1.76v-4.61h-9.49v2.83h5a.89.89,0,0,1,0,.22,1.48,1.48,0,0,1,0,.21,1.28,1.28,0,0,1-.19.73,1.31,1.31,0,0,1-.59.45,3.51,3.51,0,0,1-1,.23,12.23,12.23,0,0,1-1.45.07h-2.47a10.28,10.28,0,0,1-1.6-.11,2.55,2.55,0,0,1-1.06-.39,1.57,1.57,0,0,1-.6-.8,3.85,3.85,0,0,1-.19-1.34v-2a5.53,5.53,0,0,1,.15-1.43,1.41,1.41,0,0,1,.53-.84,2.29,2.29,0,0,1,1-.39,13.13,13.13,0,0,1,1.71-.09H203c.56,0,1,0,1.45,0a3.46,3.46,0,0,1,1,.22,1.14,1.14,0,0,1,.58.5,1.81,1.81,0,0,1,.19.91Zm17.3-5.05H212.24v14h4.3V207h6.38a5.52,5.52,0,0,1,.88.06,1.37,1.37,0,0,1,.6.22.93.93,0,0,1,.34.44,2.12,2.12,0,0,1,.11.73v2.14h4.27v-2.88a2.53,2.53,0,0,0-2.21-2.66,2.6,2.6,0,0,0,1.82-1.23,5.6,5.6,0,0,0,.51-2.66,7.19,7.19,0,0,0-.3-2.26,2.87,2.87,0,0,0-1-1.41,4.32,4.32,0,0,0-1.78-.72A15.68,15.68,0,0,0,223.5,196.54Zm-.16,3.49a1.6,1.6,0,0,1,1.19.38,1.77,1.77,0,0,1,.36,1.2,2.47,2.47,0,0,1-.32,1.43,1.48,1.48,0,0,1-1.23.42h-6.8V200Zm14.23,10.7h5a26.92,26.92,0,0,0,3.25-.17,4.5,4.5,0,0,0,2.21-.81,3.35,3.35,0,0,0,1.16-1.65,8.3,8.3,0,0,0,.34-2.59v-3.92a8.3,8.3,0,0,0-.34-2.59,3.35,3.35,0,0,0-1.16-1.65,4.44,4.44,0,0,0-2.19-.81,25.24,25.24,0,0,0-3.27-.17h-5a24.91,24.91,0,0,0-3.25.17,4.48,4.48,0,0,0-2.18.81,3.36,3.36,0,0,0-1.2,1.71,9.29,9.29,0,0,0-.33,2.7v3.82a8.22,8.22,0,0,0,.33,2.53,3.27,3.27,0,0,0,1.2,1.64,4.32,4.32,0,0,0,1,.53,6.16,6.16,0,0,0,1.23.29,12.74,12.74,0,0,0,1.48.13Q236.63,210.73,237.57,210.73Zm1.16-3.51a12.37,12.37,0,0,1-1.74-.1,2.83,2.83,0,0,1-1.16-.38,1.62,1.62,0,0,1-.67-.81,3.68,3.68,0,0,1-.21-1.35v-2a4.34,4.34,0,0,1,.19-1.43,1.63,1.63,0,0,1,.65-.83A2.83,2.83,0,0,1,237,200a14.15,14.15,0,0,1,1.75-.09h2.74a14.14,14.14,0,0,1,1.73.09,2.83,2.83,0,0,1,1.17.39,1.57,1.57,0,0,1,.65.82,3.76,3.76,0,0,1,.21,1.37v2a3.78,3.78,0,0,1-.21,1.38,1.61,1.61,0,0,1-.65.82,2.83,2.83,0,0,1-1.17.38,12.22,12.22,0,0,1-1.73.1ZM251,196.54v9.64a5.87,5.87,0,0,0,.36,2.21,2.9,2.9,0,0,0,1.15,1.39,5.35,5.35,0,0,0,2.08.74,20.06,20.06,0,0,0,3.16.21h4.78a13.86,13.86,0,0,0,2.68-.22,4.68,4.68,0,0,0,1.84-.75,3.18,3.18,0,0,0,1.07-1.4,6,6,0,0,0,.35-2.18v-9.64h-4.28v8.31a3.62,3.62,0,0,1-.17,1.21,1.47,1.47,0,0,1-.53.73,2.18,2.18,0,0,1-.93.35,8,8,0,0,1-1.4.1h-2.43a12.66,12.66,0,0,1-1.65-.09,2.7,2.7,0,0,1-1.07-.33,1.35,1.35,0,0,1-.57-.73,3.85,3.85,0,0,1-.16-1.24v-8.31Zm30,0H270.27v14h4.3v-3.49h8a6,6,0,0,0,2-.29,2.81,2.81,0,0,0,1.3-.93,4.06,4.06,0,0,0,.71-1.64,11.19,11.19,0,0,0,.22-2.41,8.36,8.36,0,0,0-.44-3,3.31,3.31,0,0,0-1.58-1.72,4.88,4.88,0,0,0-1.58-.47A18.89,18.89,0,0,0,281,196.54Zm-.16,3.49a1.55,1.55,0,0,1,1.19.39,1.83,1.83,0,0,1,.36,1.25,2.58,2.58,0,0,1-.32,1.47,1.44,1.44,0,0,1-1.23.44h-6.3V200ZM86.69,210.94l8.22-24.09L103,210.94h12l11.69-35H116.07l-7.69,24.86L99.91,176H90.1l-8.95,24.86L73.94,176H63.31l11.16,35Zm101.47,0V176H177.54v25.63L156.71,176H140.89v35h10.68V185.5l21,25.44Zm-57-46.21-2,2.36a3.54,3.54,0,0,0-.84,2.42,3.58,3.58,0,0,0,.85,2.42,2.54,2.54,0,0,0,4,0,3.65,3.65,0,0,0,.85-2.42,3.72,3.72,0,0,0-.85-2.43ZM136.54,176v35H125.87V176Zm-2.46,7.26a3.68,3.68,0,0,0-.85-2.42l-2.06-2.35-2,2.35a3.55,3.55,0,0,0-.84,2.43,3.59,3.59,0,0,0,.85,2.42,2.55,2.55,0,0,0,4,0A3.58,3.58,0,0,0,134.08,183.24Zm-46,46.55h175V227h-175ZM198,149.87l-5.11-11a18.9,18.9,0,0,1-12.32,7.91l4.28,9.17a1.45,1.45,0,0,0,2.67-.12l2.2-6,.45-.21,6,2.19A1.45,1.45,0,0,0,198,149.87Zm-36.63-21.6a16,16,0,1,1,16,16A16,16,0,0,1,161.37,128.27Zm8.2-1.18,2.83,2.76-.67,3.9a1.46,1.46,0,0,0,2.11,1.53l3.5-1.84,3.49,1.84a1.46,1.46,0,0,0,2.11-1.53l-.67-3.9,2.83-2.76a1.45,1.45,0,0,0-.8-2.47l-3.91-.57-1.75-3.54a1.46,1.46,0,0,0-2.61,0l-1.74,3.54-3.92.57A1.45,1.45,0,0,0,169.57,127.09Zm.25,28.91,4.28-9.17a18.9,18.9,0,0,1-12.32-7.91l-5.11,11a1.45,1.45,0,0,0,1.82,2l6-2.19.46.21,2.19,6A1.45,1.45,0,0,0,169.82,156Zm62,104.51c-19.76,19-42.06,27.48-55.4,27.48s-35.65-8.5-55.41-27.48A111.59,111.59,0,0,1,96.91,227H86.46c18.75,45.21,63.57,70.64,90,70.64s71.22-25.43,90-70.64H256A111.59,111.59,0,0,1,231.84,260.51Zm-154-105.29h68V152.4h-68Zm197.28-34.44L176.44,90.09,77.8,120.78v34.44h9.63V127.88l89-27.69,89,27.69v27.34h9.63Zm-68.19,34.44h68V152.4h-68ZM144.13,249.9h-3.68l3,2.16-1.14,3.5,3-2.17,3,2.17-1.13-3.5,3-2.16H146.4l-1.13-3.5Zm15,0h-3.67l3,2.16-1.14,3.5,3-2.17,3,2.17-1.13-3.5,3-2.16h-3.67l-1.14-3.5Zm15,0H170.5l3,2.16-1.13,3.5,3-2.17,3,2.17-1.14-3.5,3-2.16h-3.68l-1.14-3.5Zm13.85,0h-3.67l3,2.16-1.13,3.5,3-2.17,3,2.17-1.14-3.5,3-2.16h-3.67l-1.14-3.5Zm15,0h-3.68l3,2.16-1.13,3.5,3-2.17,3,2.17-1.14-3.5,3-2.16h-3.68l-1.14-3.5Z"/></clipPath><linearGradient id="linear-gradient" y1="200.95" x2="337.96" y2="200.95" gradientUnits="userSpaceOnUse"><stop offset="0" stop-color="#af893f"/><stop offset="0.35" stop-color="#d3ac5e"/><stop offset="0.7" stop-color="#f7dba7"/><stop offset="1" stop-color="#ddb96f"/></linearGradient></defs><title>WINNERS MAIN EMBLEM</title><g class="cls-2"><rect class="cls-3" width="337.96" height="401.91"/></g></svg>