<svg role="img" viewBox="0 0 34 34" xmlns="http://www.w3.org/2000/svg" id="Revolut--Streamline-Simple-Icons" height="34" width="34">
  <desc>
    Revolut Streamline Icon: https://streamlinehq.com
  </desc>
  <title>Revolut</title>
  <path d="M29.627175 9.855183333333335C29.627175 4.421133333333334 25.20221666666667 0 19.762925000000003 0H3.434v5.469041666666667h15.55245c2.4616000000000002 0 4.50075 1.9338916666666668 4.545658333333334 4.310916666666667 0.02266666666666667 1.19 -0.42415 2.313416666666667 -1.2577166666666668 3.162566666666667 -0.8338500000000001 0.8497166666666667 -1.9479166666666667 1.317925 -3.1370666666666667 1.317925H13.07895a0.39043333333333335 0.39043333333333335 0 0 0 -0.3902916666666667 0.3898666666666667v4.8605833333333335c0 0.082875 0.0255 0.16178333333333333 0.07366666666666667 0.2283666666666667L23.04151666666667 34h7.524483333333333l-10.302991666666667 -14.299833333333334c5.1885416666666675 -0.26038333333333336 9.364166666666668 -4.620033333333334 9.364166666666668 -9.844983333333333zM9.766925 8.390775000000001H3.434V34h6.333066666666666z" fill="#000000" stroke-width="1.4167"></path>
</svg>